<?xml version="1.0" encoding="UTF-8" standalone="no"?>
<!-- Generator: Adobe Illustrator 16.0.0, SVG Export Plug-In . SVG Version: 6.00 Build 0)  -->

<svg
   xmlns:dc="http://purl.org/dc/elements/1.1/"
   xmlns:cc="http://creativecommons.org/ns#"
   xmlns:rdf="http://www.w3.org/1999/02/22-rdf-syntax-ns#"
   xmlns:svg="http://www.w3.org/2000/svg"
   xmlns="http://www.w3.org/2000/svg"
   xmlns:xlink="http://www.w3.org/1999/xlink"
   xmlns:sodipodi="http://sodipodi.sourceforge.net/DTD/sodipodi-0.dtd"
   xmlns:inkscape="http://www.inkscape.org/namespaces/inkscape"
   version="1.1"
   x="0px"
   y="0px"
   width="738px"
   height="288px"
   viewBox="0 0 738 288"
   enable-background="new 0 0 738 288"
   xml:space="preserve"
   id="svg100702"
   sodipodi:docname="screen-small.svg"
   inkscape:version="0.92.3 (2405546, 2018-03-11)"><metadata
   id="metadata100708"><rdf:RDF><cc:Work
       rdf:about=""><dc:format>image/svg+xml</dc:format><dc:type
         rdf:resource="http://purl.org/dc/dcmitype/StillImage" /></cc:Work></rdf:RDF></metadata><defs
   id="defs100706">
	
	
	
	
	
</defs><sodipodi:namedview
   pagecolor="#ffffff"
   bordercolor="#666666"
   borderopacity="1"
   objecttolerance="10"
   gridtolerance="10"
   guidetolerance="10"
   inkscape:pageopacity="0"
   inkscape:pageshadow="2"
   inkscape:window-width="1981"
   inkscape:window-height="942"
   id="namedview100704"
   showgrid="false"
   inkscape:zoom="1.8536585"
   inkscape:cx="360.78501"
   inkscape:cy="144"
   inkscape:window-x="67"
   inkscape:window-y="27"
   inkscape:window-maximized="1"
   inkscape:current-layer="layer21" />



<g
   inkscape:groupmode="layer"
   id="layer20"
   inkscape:label="Content"
   style="display:inline"><g
     id="fold">
	<rect
   width="738"
   height="288"
   id="rect100229"
   x="0"
   y="0"
   style="fill:#929496" />
</g><g
     id="text">
	<text
   transform="translate(676.6182,73.2056)"
   id="text100249"><tspan
     x="0"
     y="0"
     font-size="5.2323"
     id="tspan100243"
     style="font-size:5.2322998px;font-family:Arial-Black;fill:#231f20">Sa</tspan><tspan
     x="7.2690001"
     y="0"
     font-size="5.2323"
     id="tspan100245"
     style="font-size:5.2322998px;font-family:Arial-Black;fill:#231f20">f</tspan><tspan
     x="9.2159996"
     y="0"
     font-size="5.2323"
     id="tspan100247"
     style="font-size:5.2322998px;font-family:Arial-Black;fill:#231f20">e Zone</tspan></text>

	<text
   transform="translate(582.0439,78.9609)"
   id="text100261"><tspan
     x="0"
     y="0"
     font-size="5.2323"
     id="tspan100251"
     style="font-size:5.2322998px;font-family:Arial-BoldMT;fill:#2da6de">DO NOT place</tspan><tspan
     x="35.182999"
     y="0"
     font-size="5.2323"
     id="tspan100253"
     style="font-size:5.2322998px;font-family:Arial-BoldMT;fill:#2da6de"> </tspan><tspan
     x="36.448002"
     y="0"
     font-size="5.2323"
     id="tspan100255"
     style="font-size:5.2322998px;font-family:Arial-BoldMT;fill:#2da6de">AN</tspan><tspan
     x="44.005001"
     y="0"
     font-size="5.2323"
     id="tspan100257"
     style="font-size:5.2322998px;font-family:Arial-BoldMT;fill:#2da6de">Y</tspan><tspan
     x="47.405998"
     y="0"
     font-size="5.2323"
     id="tspan100259"
     style="font-size:5.2322998px;font-family:Arial-BoldMT;fill:#2da6de"> important text/images beyond</tspan></text>

	<text
   transform="translate(593.3096,84.7168)"
   id="text100269"><tspan
     x="0"
     y="0"
     font-size="5.2323"
     id="tspan100263"
     style="font-size:5.2322998px;font-family:Arial-BoldMT;fill:#2da6de">this dotted line.</tspan><tspan
     x="38.662998"
     y="0"
     font-size="5.2323"
     id="tspan100265"
     style="font-size:5.2322998px;font-family:Arial-BoldMT;fill:#2da6de"> </tspan><tspan
     x="39.929001"
     y="0"
     font-size="5.2323"
     id="tspan100267"
     style="font-size:5.2322998px;font-family:Arial-BoldMT;fill:#2da6de">Anything past the dotted line</tspan></text>

	<text
   transform="translate(587.8623,90.4717)"
   font-size="5.2323"
   id="text100271"
   style="font-size:5.2322998px;font-family:Arial-BoldMT;fill:#2da6de">has the potential for being trimmed. This line is</text>

	<text
   transform="translate(581.7568,96.2275)"
   font-size="5.2323"
   id="text100273"
   style="font-size:5.2322998px;font-family:Arial-BoldMT;fill:#2da6de">provided to prevent trimming of your text/images.</text>

	<text
   transform="translate(678.5068,107.7393)"
   id="text100279"><tspan
     x="0"
     y="0"
     font-size="5.2323"
     id="tspan100275"
     style="font-size:5.2322998px;font-family:Arial-Black;fill:#231f20">T</tspan><tspan
     x="3.5539999"
     y="0"
     font-size="5.2323"
     id="tspan100277"
     style="font-size:5.2322998px;font-family:Arial-Black;fill:#231f20">rim Line</tspan></text>

	<text
   transform="translate(593.3828,113.4941)"
   font-size="5.2323"
   id="text100281"
   style="font-size:5.2322998px;font-family:Arial-BoldMT;fill:#eb242b">This is the actual cutline of your final design.</text>

	<text
   transform="translate(673.04,125.0059)"
   font-size="5.2323"
   id="text100283"
   style="font-size:5.2322998px;font-family:Arial-Black;fill:#231f20">Bleed Zone</text>

	<text
   transform="translate(593.4736,130.7607)"
   font-size="5.2323"
   id="text100285"
   style="font-size:5.2322998px;font-family:Arial-BoldMT;fill:#929497">Extend any screen artwork/color to the edge </text>

	<text
   transform="translate(590.4795,136.5166)"
   font-size="5.2323"
   id="text100287"
   style="font-size:5.2322998px;font-family:Arial-BoldMT;fill:#929497">(covering the gray) if you want your design to </text>

	<text
   transform="translate(580.9824,142.2725)"
   id="text100295"><tspan
     x="0"
     y="0"
     font-size="5.2323"
     id="tspan100289"
     style="font-size:5.2322998px;font-family:Arial-BoldMT;fill:#929497">extend to the edge on the final print. </tspan><tspan
     x="91.574997"
     y="0"
     font-size="5.2323"
     id="tspan100291"
     style="font-size:5.2322998px;font-family:Arial-BoldMT;fill:#929497">W</tspan><tspan
     x="96.425003"
     y="0"
     font-size="5.2323"
     id="tspan100293"
     style="font-size:5.2322998px;font-family:Arial-BoldMT;fill:#929497">e require a </tspan></text>

	<text
   transform="translate(582.3164,148.0273)"
   font-size="5.2323"
   id="text100297"
   style="font-size:5.2322998px;font-family:Arial-BoldMT;fill:#929497">bleed of 1/8”. Please use the Safe Zone guideline </text>

	<text
   transform="translate(591.3369,153.7832)"
   font-size="5.2323"
   id="text100299"
   style="font-size:5.2322998px;font-family:Arial-BoldMT;fill:#929497">  to prevent trimming of essential text/images.</text>

	<text
   transform="translate(594.5342,159.5391)"
   font-size="5.2323"
   id="text100301"
   style="font-size:5.2322998px;font-family:Arial-BoldMT;fill:#929497">The bleed is to make sure your design/color </text>

	<text
   transform="translate(620.5195,165.2939)"
   font-size="5.2323"
   id="text100303"
   style="font-size:5.2322998px;font-family:Arial-BoldMT;fill:#929497">extends to the edge of the screen.</text>

	<text
   transform="translate(670.7949,176.8047)"
   id="text100315"><tspan
     x="0"
     y="0"
     font-size="5.2323"
     id="tspan100305"
     style="font-size:5.2322998px;font-family:Arial-Black;fill:#231f20">Bo</tspan><tspan
     x="7.5609999"
     y="0"
     font-size="5.2323"
     id="tspan100307"
     style="font-size:5.2322998px;font-family:Arial-Black;fill:#231f20">r</tspan><tspan
     x="10.014"
     y="0"
     font-size="5.2323"
     id="tspan100309"
     style="font-size:5.2322998px;font-family:Arial-Black;fill:#231f20">der A</tspan><tspan
     x="25.132"
     y="0"
     font-size="5.2323"
     id="tspan100311"
     style="font-size:5.2322998px;font-family:Arial-Black;fill:#231f20">r</tspan><tspan
     x="27.538"
     y="0"
     font-size="5.2323"
     id="tspan100313"
     style="font-size:5.2322998px;font-family:Arial-Black;fill:#231f20">ea</tspan></text>

	<text
   transform="translate(598.4824,182.5615)"
   font-size="5.2323"
   id="text100317"
   style="font-size:5.2322998px;font-family:Arial-BoldMT;fill:#f9a61c">This is the minimum recommended border</text>

	<text
   transform="translate(598.3213,188.3164)"
   font-size="5.2323"
   id="text100319"
   style="font-size:5.2322998px;font-family:Arial-BoldMT;fill:#f9a61c">area. If you want a border around the edge </text>

	<text
   transform="translate(602.793,194.0713)"
   font-size="5.2323"
   id="text100321"
   style="font-size:5.2322998px;font-family:Arial-BoldMT;fill:#f9a61c">of your screen, you will want it to extend </text>

	<text
   transform="translate(580.9893,199.8271)"
   font-size="5.2323"
   id="text100323"
   style="font-size:5.2322998px;font-family:Arial-BoldMT;fill:#f9a61c">the width of this guide on each side of the screen.</text>

	<text
   transform="translate(455.5879,55.5532)"
   id="text100331"><tspan
     x="0"
     y="0"
     font-size="6.1044"
     id="tspan100325"
     style="font-size:6.10440016px;font-family:Arial-BoldMT;fill:#231f20">3.5” x 10” SMALL SCREEN TEMPL</tspan><tspan
     x="100.402"
     y="0"
     font-size="6.1044"
     id="tspan100327"
     style="font-size:6.10440016px;font-family:Arial-BoldMT;fill:#231f20">A</tspan><tspan
     x="104.359"
     y="0"
     font-size="6.1044"
     id="tspan100329"
     style="font-size:6.10440016px;font-family:Arial-BoldMT;fill:#231f20">TES</tspan></text>

	<text
   transform="translate(455.5879,62.5303)"
   id="text100355"><tspan
     x="0"
     y="0"
     font-size="6.1044"
     id="tspan100333"
     style="font-size:6.10440016px;font-family:Arial-BoldMT;fill:#231f20">ww</tspan><tspan
     x="10.106"
     y="0"
     font-size="6.1044"
     id="tspan100335"
     style="font-size:6.10440016px;font-family:Arial-BoldMT;fill:#231f20">w</tspan><tspan
     x="14.934"
     y="0"
     font-size="6.1044"
     id="tspan100337"
     style="font-size:6.10440016px;font-family:Arial-BoldMT;fill:#231f20">.</tspan><tspan
     x="16.936001"
     y="0"
     font-size="6.1044"
     id="tspan100339"
     style="font-size:6.10440016px;font-family:Arial-BoldMT;fill:#231f20">t</tspan><tspan
     x="19.268"
     y="0"
     font-size="6.1044"
     id="tspan100341"
     style="font-size:6.10440016px;font-family:Arial-BoldMT;fill:#231f20">h</tspan><tspan
     x="23.302"
     y="0"
     font-size="6.1044"
     id="tspan100343"
     style="font-size:6.10440016px;font-family:Arial-BoldMT;fill:#231f20">e</tspan><tspan
     x="26.995001"
     y="0"
     font-size="6.1044"
     id="tspan100345"
     style="font-size:6.10440016px;font-family:Arial-BoldMT;fill:#231f20">g</tspan><tspan
     x="31.028999"
     y="0"
     font-size="6.1044"
     id="tspan100347"
     style="font-size:6.10440016px;font-family:Arial-BoldMT;fill:#231f20">amecrafte</tspan><tspan
     x="62.563"
     y="0"
     font-size="6.1044"
     id="tspan100349"
     style="font-size:6.10440016px;font-family:Arial-BoldMT;fill:#231f20">r</tspan><tspan
     x="64.908997"
     y="0"
     font-size="6.1044"
     id="tspan100351"
     style="font-size:6.10440016px;font-family:Arial-BoldMT;fill:#231f20">.co</tspan><tspan
     x="74.638"
     y="0"
     font-size="6.1044"
     id="tspan100353"
     style="font-size:6.10440016px;font-family:Arial-BoldMT;fill:#231f20">m</tspan></text>

	<rect
   x="710.87903"
   y="177.569"
   width="27.499001"
   height="22.747"
   id="rect100357"
   style="fill:#f9a61c" />
	<line
   x1="671.08502"
   y1="178.004"
   x2="738.37799"
   y2="178.004"
   id="line100359"
   style="fill:none;stroke:#f9a61c" />
	<line
   x1="678.96399"
   y1="108.742"
   x2="729.00098"
   y2="108.742"
   id="line100361"
   style="fill:none;stroke:#eb242b" />
	<line
   x1="673.29602"
   y1="126.111"
   x2="729.79602"
   y2="126.111"
   id="line100363"
   style="fill:none;stroke:#929497" />
	<line
   x1="676.97699"
   y1="74.078003"
   x2="719.96399"
   y2="74.078003"
   id="line100365"
   style="fill:none;stroke:#2da6de;stroke-dasharray:1.44, 1.44" />
	<path
   d="m 676.986,68.03 c 0,0.358 -0.163,0.709 -0.487,1.048 l -0.051,0.052 -2.842,2.993 c -0.604,0.635 -1.118,1.125 -1.543,1.471 -0.424,0.347 -0.724,0.521 -0.898,0.521 -0.184,0 -0.412,-0.087 -0.686,-0.26 -0.272,-0.175 -0.449,-0.353 -0.529,-0.537 -0.067,-0.153 -0.131,-0.478 -0.19,-0.975 -0.06,-0.497 -0.09,-1.035 -0.09,-1.614 0,-0.317 0.133,-0.609 0.395,-0.877 0.265,-0.268 0.557,-0.402 0.875,-0.402 0.304,0 0.484,0.278 0.541,0.832 0.008,0.065 0.013,0.113 0.016,0.143 0.049,0.425 0.105,0.723 0.169,0.892 0.065,0.168 0.153,0.253 0.263,0.253 0.046,0 0.132,-0.05 0.259,-0.149 0.125,-0.101 0.275,-0.235 0.45,-0.408 l 2.92,-2.893 c 0.245,-0.244 0.464,-0.43 0.657,-0.555 0.193,-0.126 0.356,-0.189 0.492,-0.189 0.102,0 0.173,0.039 0.217,0.114 0.042,0.077 0.063,0.206 0.063,0.387 v 0.153 z"
   id="path100367"
   inkscape:connector-curvature="0"
   style="fill:#eb242b" />
	<path
   d="m 678.046,102.019 c 0,0.358 -0.162,0.709 -0.487,1.048 l -0.051,0.052 -2.842,2.992 c -0.604,0.635 -1.118,1.125 -1.542,1.473 -0.426,0.346 -0.725,0.52 -0.899,0.52 -0.185,0 -0.412,-0.087 -0.686,-0.26 -0.272,-0.174 -0.449,-0.353 -0.529,-0.536 -0.067,-0.152 -0.131,-0.479 -0.19,-0.975 -0.059,-0.497 -0.09,-1.034 -0.09,-1.613 0,-0.317 0.132,-0.609 0.396,-0.877 0.264,-0.268 0.556,-0.402 0.874,-0.402 0.304,0 0.484,0.277 0.541,0.832 0.008,0.065 0.012,0.111 0.016,0.143 0.049,0.425 0.105,0.723 0.17,0.892 0.064,0.168 0.152,0.253 0.262,0.253 0.046,0 0.132,-0.05 0.258,-0.149 0.125,-0.101 0.276,-0.236 0.451,-0.409 l 2.92,-2.892 c 0.245,-0.245 0.464,-0.43 0.657,-0.555 0.193,-0.127 0.356,-0.19 0.492,-0.19 0.102,0 0.173,0.04 0.217,0.115 0.042,0.077 0.063,0.206 0.063,0.387 v 0.151 z"
   id="path100369"
   inkscape:connector-curvature="0"
   style="fill:#eb242b" />
	<path
   d="m 673.25,118.938 c 0,0.358 -0.163,0.709 -0.487,1.048 l -0.051,0.052 -2.842,2.992 c -0.604,0.636 -1.119,1.125 -1.543,1.473 -0.425,0.346 -0.725,0.52 -0.899,0.52 -0.184,0 -0.412,-0.086 -0.686,-0.26 -0.272,-0.174 -0.448,-0.353 -0.528,-0.536 -0.067,-0.152 -0.131,-0.478 -0.191,-0.976 -0.059,-0.496 -0.089,-1.034 -0.089,-1.613 0,-0.316 0.132,-0.608 0.396,-0.876 0.264,-0.269 0.555,-0.402 0.873,-0.402 0.305,0 0.484,0.277 0.542,0.832 0.008,0.064 0.012,0.111 0.015,0.144 0.049,0.425 0.106,0.723 0.17,0.892 0.064,0.168 0.152,0.253 0.263,0.253 0.046,0 0.132,-0.05 0.258,-0.148 0.125,-0.101 0.275,-0.236 0.45,-0.409 l 2.92,-2.893 c 0.246,-0.245 0.465,-0.43 0.658,-0.556 0.193,-0.126 0.356,-0.188 0.492,-0.188 0.102,0 0.173,0.039 0.216,0.115 0.043,0.076 0.064,0.206 0.064,0.387 v 0.149 z"
   id="path100371"
   inkscape:connector-curvature="0"
   style="fill:#eb242b" />
	<path
   d="m 670.882,171.783 c 0,0.359 -0.163,0.709 -0.486,1.05 l -0.052,0.051 -2.842,2.992 c -0.604,0.636 -1.118,1.126 -1.543,1.472 -0.424,0.348 -0.724,0.52 -0.898,0.52 -0.184,0 -0.412,-0.087 -0.686,-0.259 -0.272,-0.174 -0.449,-0.353 -0.528,-0.536 -0.068,-0.153 -0.132,-0.479 -0.191,-0.975 -0.06,-0.497 -0.089,-1.035 -0.089,-1.614 0,-0.315 0.132,-0.608 0.394,-0.876 0.266,-0.269 0.557,-0.401 0.875,-0.401 0.304,0 0.484,0.275 0.541,0.831 0.008,0.064 0.013,0.112 0.016,0.143 0.049,0.426 0.105,0.725 0.17,0.893 0.064,0.169 0.152,0.252 0.262,0.252 0.047,0 0.133,-0.049 0.259,-0.149 0.125,-0.099 0.275,-0.235 0.45,-0.405 l 2.92,-2.894 c 0.245,-0.246 0.464,-0.432 0.657,-0.556 0.193,-0.126 0.357,-0.189 0.492,-0.189 0.102,0 0.173,0.038 0.217,0.114 0.043,0.077 0.063,0.206 0.063,0.387 v 0.149 z"
   id="path100373"
   inkscape:connector-curvature="0"
   style="fill:#eb242b" />
	<rect
   x="559.71198"
   y="32.209999"
   width="172.666"
   height="235.453"
   id="rect100375"
   style="fill:none" />
	<text
   transform="translate(662.248,212.7227)"
   id="text100383"><tspan
     x="0"
     y="0"
     font-size="5.2323"
     id="tspan100377"
     style="font-size:5.2322998px;font-family:Arial-Black;fill:#231f20">PLEASE N</tspan><tspan
     x="28.777"
     y="0"
     font-size="5.2323"
     id="tspan100379"
     style="font-size:5.2322998px;font-family:Arial-Black;fill:#231f20">O</tspan><tspan
     x="33"
     y="0"
     font-size="5.2323"
     id="tspan100381"
     style="font-size:5.2322998px;font-family:Arial-Black;fill:#231f20">TE:</tspan></text>

	<text
   transform="translate(631.8271,219.002)"
   id="text100407"><tspan
     x="0"
     y="0"
     font-size="5.2323"
     id="tspan100385"
     style="font-size:5.2322998px;font-family:Arial-Black;fill:#231f20">R</tspan><tspan
     x="3.944"
     y="0"
     font-size="5.2323"
     id="tspan100387"
     style="font-size:5.2322998px;font-family:Arial-Black;fill:#231f20">em</tspan><tspan
     x="12.667"
     y="0"
     font-size="5.2323"
     id="tspan100389"
     style="font-size:5.2322998px;font-family:Arial-Black;fill:#231f20">o</tspan><tspan
     x="15.985"
     y="0"
     font-size="5.2323"
     id="tspan100391"
     style="font-size:5.2322998px;font-family:Arial-Black;fill:#231f20">v</tspan><tspan
     x="19.051001"
     y="0"
     font-size="5.2323"
     id="tspan100393"
     style="font-size:5.2322998px;font-family:Arial-Black;fill:#231f20">e this la</tspan><tspan
     x="42.014999"
     y="0"
     font-size="5.2323"
     id="tspan100395"
     style="font-size:5.2322998px;font-family:Arial-Black;fill:#231f20">y</tspan><tspan
     x="45.126999"
     y="0"
     font-size="5.2323"
     id="tspan100397"
     style="font-size:5.2322998px;font-family:Arial-Black;fill:#231f20">er be</tspan><tspan
     x="59.665001"
     y="0"
     font-size="5.2323"
     id="tspan100399"
     style="font-size:5.2322998px;font-family:Arial-Black;fill:#231f20">f</tspan><tspan
     x="61.612"
     y="0"
     font-size="5.2323"
     id="tspan100401"
     style="font-size:5.2322998px;font-family:Arial-Black;fill:#231f20">o</tspan><tspan
     x="65.102997"
     y="0"
     font-size="5.2323"
     id="tspan100403"
     style="font-size:5.2322998px;font-family:Arial-Black;fill:#231f20">r</tspan><tspan
     x="67.509003"
     y="0"
     font-size="5.2323"
     id="tspan100405"
     style="font-size:5.2322998px;font-family:Arial-Black;fill:#231f20">e </tspan></text>

	<text
   transform="translate(634.1982,225.2803)"
   font-size="5.2323"
   id="text100409"
   style="font-size:5.2322998px;font-family:Arial-Black;fill:#231f20">sending the file to print. </text>

	<text
   transform="translate(627.8457,231.5586)"
   id="text100425"><tspan
     x="0"
     y="0"
     font-size="5.2323"
     id="tspan100411"
     style="font-size:5.2322998px;font-family:Arial-Black;fill:#231f20">T</tspan><tspan
     x="3.914"
     y="0"
     font-size="5.2323"
     id="tspan100413"
     style="font-size:5.2322998px;font-family:Arial-Black;fill:#231f20">his la</tspan><tspan
     x="19.32"
     y="0"
     font-size="5.2323"
     id="tspan100415"
     style="font-size:5.2322998px;font-family:Arial-Black;fill:#231f20">y</tspan><tspan
     x="22.434"
     y="0"
     font-size="5.2323"
     id="tspan100417"
     style="font-size:5.2322998px;font-family:Arial-Black;fill:#231f20">er is p</tspan><tspan
     x="40.165001"
     y="0"
     font-size="5.2323"
     id="tspan100419"
     style="font-size:5.2322998px;font-family:Arial-Black;fill:#231f20">r</tspan><tspan
     x="42.57"
     y="0"
     font-size="5.2323"
     id="tspan100421"
     style="font-size:5.2322998px;font-family:Arial-Black;fill:#231f20">o</tspan><tspan
     x="45.888"
     y="0"
     font-size="5.2323"
     id="tspan100423"
     style="font-size:5.2322998px;font-family:Arial-Black;fill:#231f20">vided as a </tspan></text>

	<text
   transform="translate(656.4619,237.8379)"
   id="text100437"><tspan
     x="0"
     y="0"
     font-size="5.2323"
     id="tspan100427"
     style="font-size:5.2322998px;font-family:Arial-Black;fill:#231f20">guide </tspan><tspan
     x="17.448"
     y="0"
     font-size="5.2323"
     id="tspan100429"
     style="font-size:5.2322998px;font-family:Arial-Black;fill:#231f20">f</tspan><tspan
     x="19.396"
     y="0"
     font-size="5.2323"
     id="tspan100431"
     style="font-size:5.2322998px;font-family:Arial-Black;fill:#231f20">or set u</tspan><tspan
     x="41.196999"
     y="0"
     font-size="5.2323"
     id="tspan100433"
     style="font-size:5.2322998px;font-family:Arial-Black;fill:#231f20">p</tspan><tspan
     x="44.604"
     y="0"
     font-size="5.2323"
     id="tspan100435"
     style="font-size:5.2322998px;font-family:Arial-Black;fill:#231f20">. </tspan></text>

	<text
   transform="translate(624.7529,244.1162)"
   id="text100445"><tspan
     x="0"
     y="0"
     font-size="5.2323"
     id="tspan100439"
     style="font-size:5.2322998px;font-family:Arial-Black;fill:#231f20">DELETE L</tspan><tspan
     x="27.909"
     y="0"
     font-size="5.2323"
     id="tspan100441"
     style="font-size:5.2322998px;font-family:Arial-Black;fill:#231f20">A</tspan><tspan
     x="31.540001"
     y="0"
     font-size="5.2323"
     id="tspan100443"
     style="font-size:5.2322998px;font-family:Arial-Black;fill:#231f20">YER AFTER USE.</tspan></text>

	<g
   id="g100699">
		<defs
   id="defs100448">
			<rect
   id="SVGID_1_"
   x="559.71198"
   y="32.209999"
   width="172.666"
   height="235.453" />
		</defs>
		<clipPath
   id="SVGID_2_">
			<use
   xlink:href="#SVGID_1_"
   overflow="visible"
   id="use100450"
   style="overflow:visible"
   x="0"
   y="0"
   width="100%"
   height="100%" />
		</clipPath>
		<path
   clip-path="url(#SVGID_2_)"
   d="m 662.081,207.759 c 0,0.358 -0.163,0.709 -0.487,1.048 l -0.051,0.051 -2.843,2.994 c -0.604,0.634 -1.117,1.124 -1.542,1.472 -0.425,0.346 -0.725,0.52 -0.899,0.52 -0.184,0 -0.412,-0.087 -0.686,-0.261 -0.272,-0.172 -0.448,-0.351 -0.528,-0.534 -0.067,-0.153 -0.132,-0.479 -0.19,-0.977 -0.06,-0.495 -0.09,-1.033 -0.09,-1.612 0,-0.317 0.132,-0.608 0.396,-0.878 0.264,-0.267 0.555,-0.401 0.873,-0.401 0.305,0 0.485,0.277 0.543,0.833 0.007,0.062 0.011,0.112 0.015,0.143 0.048,0.426 0.105,0.723 0.169,0.891 0.064,0.169 0.152,0.254 0.263,0.254 0.046,0 0.132,-0.051 0.258,-0.149 0.125,-0.101 0.276,-0.235 0.45,-0.407 l 2.921,-2.894 c 0.245,-0.244 0.464,-0.43 0.657,-0.556 0.193,-0.126 0.356,-0.188 0.492,-0.188 0.102,0 0.173,0.039 0.216,0.115 0.043,0.077 0.064,0.206 0.064,0.387 v 0.149 z"
   id="path100453"
   inkscape:connector-curvature="0"
   style="fill:#eb242b" />
		<path
   clip-path="url(#SVGID_2_)"
   d="m 622.134,226.139 c 0,11.55 -9.363,20.91 -20.911,20.91 -11.55,0 -20.913,-9.36 -20.913,-20.91 0,-11.552 9.363,-20.914 20.913,-20.914 11.548,0 20.911,9.362 20.911,20.914"
   id="path100455"
   inkscape:connector-curvature="0"
   style="clip-rule:evenodd;fill:#010101;fill-rule:evenodd" />
		<path
   clip-path="url(#SVGID_2_)"
   d="m 620.247,226.253 c 0,10.5 -8.511,19.011 -19.011,19.011 -10.499,0 -19.011,-8.511 -19.011,-19.011 0,-10.501 8.512,-19.012 19.011,-19.012 10.5,0 19.011,8.511 19.011,19.012"
   id="path100457"
   inkscape:connector-curvature="0"
   style="clip-rule:evenodd;fill:#b7d334;fill-rule:evenodd" />
		<path
   clip-path="url(#SVGID_2_)"
   d="m 597.166,222.108 c -0.265,2.329 -0.46,4.202 -0.591,5.614 l -0.866,0.037 c 0.013,-0.046 0.02,-0.101 0.021,-0.158 0,-0.105 -0.037,-0.245 -0.117,-0.419 -0.08,-0.172 -0.125,-0.281 -0.136,-0.329 -0.224,0.033 -0.439,0.189 -0.645,0.466 -0.206,0.28 -0.392,0.42 -0.555,0.417 -0.095,-0.004 -0.201,-0.029 -0.318,-0.077 -0.153,0.104 -0.355,0.148 -0.604,0.133 -0.223,-0.04 -0.44,-0.073 -0.652,-0.1 -0.008,-0.297 -0.297,-0.554 -0.871,-0.775 0.003,-0.119 -0.057,-0.293 -0.176,-0.526 -0.121,-0.231 -0.18,-0.394 -0.178,-0.489 0,-0.105 0.043,-0.192 0.128,-0.262 -0.012,-0.036 -0.109,-0.256 -0.289,-0.661 -0.125,-0.296 -0.186,-0.55 -0.183,-0.761 0.003,-0.166 0.041,-0.319 0.115,-0.459 -0.102,-1.005 -0.146,-1.866 -0.134,-2.583 0.019,-1.109 0.177,-2.126 0.477,-3.055 -0.021,-0.141 -0.03,-0.282 -0.029,-0.424 0.014,-0.742 0.271,-1.257 0.77,-1.543 l 0.004,-0.229 c 0.494,-0.631 1.144,-1.084 1.95,-1.365 0.483,0.116 0.964,0.224 1.444,0.327 0.54,0.185 0.911,0.505 1.116,0.954 0.163,0.099 0.243,0.295 0.238,0.588 -0.005,0.332 0.032,0.545 0.112,0.641 l -0.091,0.104 c 0.095,0.696 0.142,1.122 0.139,1.275 -0.008,0.448 -0.126,0.765 -0.353,0.949 -0.082,0 -0.299,-0.075 -0.651,-0.224 -0.083,0.082 -0.173,0.121 -0.266,0.119 -0.048,-0.001 -0.134,-0.027 -0.256,-0.074 -0.123,-0.05 -0.227,-0.073 -0.31,-0.075 -0.058,-0.002 -0.117,0.009 -0.176,0.03 -0.008,-0.93 0.021,-1.626 0.088,-2.085 -0.094,-0.06 -0.188,-0.199 -0.283,-0.41 -0.099,-0.215 -0.223,-0.335 -0.375,-0.361 -0.097,0.118 -0.14,0.193 -0.129,0.229 l -0.316,-0.11 c -0.287,0.313 -0.479,0.858 -0.574,1.633 -0.098,0.896 -0.22,1.487 -0.366,1.78 0.126,0.133 0.188,0.315 0.184,0.552 -10e-4,0.082 -0.016,0.218 -0.042,0.405 -0.027,0.189 -0.041,0.33 -0.041,0.424 -0.004,0.107 0.007,0.201 0.028,0.285 l -0.214,0.207 c 0.086,0.402 0.138,0.912 0.15,1.524 -0.01,0.519 -0.013,1.038 -0.01,1.556 -0.01,0 -0.112,0.003 -0.3,0.014 -0.117,-0.004 -0.201,0.035 -0.248,0.119 0.069,-0.011 0.134,-0.018 0.193,-0.014 0.259,0.003 0.462,0.186 0.608,0.548 0.148,0.363 0.274,0.546 0.381,0.547 0.118,0.002 0.278,-0.107 0.482,-0.33 0.348,-0.37 0.528,-0.881 0.539,-1.528 0.007,-0.318 -0.029,-0.66 -0.106,-1.026 -0.083,0.044 -0.127,0.163 -0.129,0.351 -0.189,-0.002 -0.309,0.037 -0.356,0.117 -0.081,-0.025 -0.117,-0.092 -0.103,-0.193 0.015,-0.153 0.021,-0.237 0.021,-0.249 0.143,-0.044 0.213,-0.109 0.216,-0.19 0,-0.036 -0.024,-0.103 -0.076,-0.196 -0.052,-0.096 -0.075,-0.172 -0.075,-0.231 0,-0.048 0.014,-0.094 0.037,-0.142 l 0.082,-0.688 c 0.259,0.077 0.817,0.109 1.68,0.101 -0.025,0.059 0.009,0.135 0.102,0.23 0.084,-0.08 0.173,-0.121 0.267,-0.118 0.071,0.002 0.177,0.033 0.316,0.094 0.144,0.057 0.242,0.088 0.302,0.089"
   id="path100459"
   inkscape:connector-curvature="0"
   style="fill:#010101" />
		<path
   clip-path="url(#SVGID_2_)"
   d="m 603.766,228.198 c -0.163,-0.074 -0.341,-0.111 -0.528,-0.116 -0.166,-0.002 -0.392,0.029 -0.675,0.097 -0.319,0.063 -0.538,0.101 -0.656,0.111 -0.125,-0.249 -0.213,-0.593 -0.265,-1.031 -0.095,-0.637 -0.154,-0.998 -0.177,-1.081 0.037,-0.069 0.056,-0.13 0.056,-0.176 0.004,-0.129 -0.099,-0.247 -0.303,-0.351 -0.204,-0.103 -0.307,-0.186 -0.305,-0.243 0,-0.07 0.12,-0.174 0.357,-0.312 -0.057,-0.072 -0.101,-0.219 -0.125,-0.435 -0.024,-0.22 -0.079,-0.364 -0.159,-0.438 -0.145,0.128 -0.379,0.21 -0.704,0.246 -0.325,0.035 -0.539,0.088 -0.646,0.156 0.007,0.92 -0.146,1.536 -0.457,1.848 -0.163,-0.037 -0.29,0.026 -0.374,0.189 -0.122,0.199 -0.224,0.315 -0.307,0.35 l 0.103,0.124 c -0.095,0.082 -0.249,0.114 -0.461,0.099 -0.33,-0.017 -0.506,-0.025 -0.531,-0.025 l -0.099,-0.322 1.151,-9.546 c 0.011,-0.602 0.041,-1.011 0.091,-1.22 -0.014,-0.531 0.11,-0.858 0.371,-0.984 0.163,0.108 0.369,0.165 0.616,0.17 0.201,0.004 0.515,-0.037 0.938,-0.126 0.428,-0.087 0.723,-0.129 0.888,-0.128 0.577,0.012 0.829,0.428 0.758,1.252 -0.06,0.659 0.044,1.528 0.309,2.606 0.275,1.159 0.407,2.028 0.398,2.607 -0.004,0.174 0.055,0.542 0.04,0.719 -0.251,0.136 -0.569,0.22 -0.958,0.249 -0.344,0.017 -0.691,0.035 -1.046,0.051 -0.091,-0.896 -0.249,-1.978 -0.339,-2.863 -0.112,-1.062 -0.251,-1.937 -0.417,-2.625 l -0.546,5.049 c -0.041,0.436 0.155,0.657 0.591,0.666 0.142,0.002 0.277,-0.031 0.409,-0.101 0.107,-0.032 0.254,0.046 0.438,0.238 -0.007,0.364 0.066,0.584 0.22,0.657 0.189,-0.126 0.439,-0.245 0.748,-0.359 0.272,-0.101 0.541,-0.195 0.802,-0.286 0.147,0.203 0.244,0.506 0.285,0.906 0.049,0.567 0.085,0.897 0.106,0.993 0.02,0.225 0.111,0.709 0.274,1.454 0.12,0.592 0.178,1.07 0.172,1.437 -0.003,0.177 -0.019,0.341 -0.043,0.494"
   id="path100461"
   inkscape:connector-curvature="0"
   style="fill:#010101" />
		<path
   clip-path="url(#SVGID_2_)"
   d="m 611.908,219.775 c -0.013,0.036 -0.017,0.242 -0.011,0.62 -0.006,0.305 -0.045,0.534 -0.116,0.687 -0.089,0.234 -0.135,0.572 -0.144,1.006 -10e-4,0.096 0.002,0.242 0.012,0.443 -0.005,0.201 -0.006,0.348 -0.008,0.441 -0.012,0.742 -0.14,1.282 -0.383,1.619 0.021,0.191 0.03,0.38 0.028,0.567 -0.01,0.59 -0.213,1.383 -0.607,2.378 -0.106,0.034 -0.195,0.049 -0.267,0.049 -0.142,-0.003 -0.242,-0.085 -0.305,-0.245 -0.063,-0.16 -0.121,-0.312 -0.179,-0.453 0.039,-0.906 0.021,-2.228 -0.056,-3.963 l 0.106,-0.104 c -0.077,-0.307 -0.111,-0.648 -0.105,-1.026 0.005,-0.271 0.039,-0.666 0.1,-1.184 0.062,-0.519 0.095,-0.906 0.099,-1.165 0.005,-0.166 0,-0.324 -0.007,-0.478 -0.407,0.971 -0.694,2.616 -0.864,4.937 l -0.146,0.351 c -0.05,0.117 -0.151,0.181 -0.304,0.189 -0.046,-0.082 -0.093,-0.125 -0.139,-0.125 -0.036,-0.003 -0.099,0.041 -0.188,0.13 -0.091,0.085 -0.166,0.122 -0.223,0.11 l -0.234,0.206 c 0.104,0.133 0.327,0.148 0.672,0.05 0.271,-0.08 0.411,0.023 0.418,0.307 0.009,0.236 -0.056,0.553 -0.192,0.952 -0.137,0.398 -0.206,0.696 -0.21,0.897 -10e-4,0.143 0.014,0.284 0.045,0.424 l -1.223,0.192 c -0.113,-0.236 -0.198,-0.637 -0.254,-1.197 -0.055,-0.561 -0.139,-0.961 -0.253,-1.197 0.071,-0.082 0.107,-0.169 0.109,-0.264 0.002,-0.082 -0.03,-0.208 -0.099,-0.373 -0.068,-0.167 -0.107,-0.292 -0.118,-0.375 -0.01,-0.128 -0.051,-0.443 -0.125,-0.938 -0.052,-0.4 -0.077,-0.716 -0.073,-0.937 0.002,-0.119 0.011,-0.226 0.023,-0.32 0.002,-0.082 -0.045,-0.203 -0.136,-0.364 -0.091,-0.16 -0.136,-0.276 -0.134,-0.348 0,-0.059 0.024,-0.111 0.072,-0.157 -0.082,-0.097 -0.113,-0.262 -0.099,-0.497 0.017,-0.236 -0.017,-0.402 -0.098,-0.496 -0.172,0.455 -0.265,1.073 -0.278,1.851 -0.006,1.085 -0.017,1.711 -0.031,1.875 l 0.122,0.108 -0.126,0.103 c 0.087,0.426 0.126,0.97 0.113,1.628 -0.031,1.191 -0.047,1.746 -0.046,1.664 -0.167,0.15 -0.398,0.224 -0.694,0.217 -0.364,-0.005 -0.612,0.027 -0.743,0.094 -0.149,-0.261 -0.221,-0.598 -0.212,-1.01 0.005,-0.319 0.059,-0.707 0.161,-1.165 -0.161,-0.299 -0.236,-0.712 -0.228,-1.244 0.002,-0.129 0.019,-0.374 0.049,-0.74 0.018,-0.295 0.021,-0.513 0.012,-0.654 0.118,-0.056 0.179,-0.119 0.179,-0.19 0.002,-0.048 -0.035,-0.128 -0.11,-0.242 -0.075,-0.11 -0.112,-0.197 -0.111,-0.257 0.002,-0.072 0.051,-0.142 0.146,-0.212 l -0.381,-5.718 c 0.228,-0.149 0.594,-0.22 1.101,-0.211 0.553,0.022 0.933,-0.009 1.133,-0.087 0.037,-0.023 0.077,-0.034 0.125,-0.034 0.048,0.002 0.103,0.029 0.166,0.084 0.065,0.053 0.108,0.082 0.131,0.082 0.048,0 0.09,-0.036 0.127,-0.106 l 0.33,0.326 c 0.11,0.415 0.216,1.218 0.313,2.409 0.1,1.027 0.257,1.804 0.474,2.325 0.288,-1.044 0.527,-1.918 0.716,-2.621 l 0.385,-2.8 2.741,-0.06 c 0.009,0.153 0.043,0.973 0.116,1.445 0.062,0.412 0.095,0.75 0.09,1.009 -0.005,0.296 -0.051,0.561 -0.139,0.794 0.093,0.133 0.138,0.298 0.134,0.497 -10e-4,0.2 -0.053,0.363 -0.149,0.491"
   id="path100463"
   inkscape:connector-curvature="0"
   style="fill:#010101" />
		<path
   clip-path="url(#SVGID_2_)"
   d="m 617.533,225.974 v -0.018 c -0.073,0.152 -0.118,0.327 -0.133,0.528 -0.014,0.13 -0.018,0.312 -0.01,0.547 0.008,0.271 0.01,0.46 0.01,0.567 -0.098,-0.002 -0.472,-0.009 -1.132,-0.02 -0.402,-0.007 -0.761,0.027 -1.081,0.106 l -0.33,-0.36 c -0.098,0.093 -0.133,0.167 -0.111,0.227 -0.058,-0.012 -0.328,-0.017 -0.812,-0.013 -0.378,-0.006 -0.659,-0.048 -0.846,-0.121 -0.192,0.199 -0.417,0.194 -0.673,-0.013 -0.094,-0.069 -0.103,-0.192 -0.029,-0.36 0.073,-0.171 0.052,-0.298 -0.064,-0.382 0.019,-0.376 0.069,-0.961 0.154,-1.749 0.082,-0.705 0.127,-1.259 0.134,-1.659 0.008,-0.543 -0.029,-1.062 -0.114,-1.559 0.133,-0.128 0.279,-0.19 0.444,-0.188 0.189,0.002 0.411,0.096 0.668,0.278 0.359,0.25 0.548,0.38 0.56,0.38 l 0.103,0.124 c 0.014,-0.034 0.075,-0.222 0.188,-0.562 0.062,-0.223 0.153,-0.367 0.272,-0.438 l 0.104,0.109 c 0.049,-0.022 0.203,-0.133 0.467,-0.329 0.201,-0.138 0.366,-0.465 0.484,-0.461 0.131,0 0.252,0.074 0.367,0.218 0.199,0.107 0.324,0.533 0.385,0.749 0.062,0.222 0.12,0.437 0.178,0.65 -0.532,0.016 -0.97,0 -1.31,-0.04 -0.085,0.129 -0.203,0.147 -0.356,0.056 -0.149,-0.09 -0.261,-0.076 -0.334,0.037 -0.005,0.213 -0.012,0.599 -0.021,1.152 -0.02,0.492 -0.025,0.882 -0.018,1.166 0.004,0.437 0.031,0.837 0.084,1.203 0.095,0.001 0.541,0.01 1.344,0.023 0.551,0.013 1.028,0.061 1.428,0.152 m 0.037,-8.471 c -0.106,0.011 -0.224,0.014 -0.353,0.012 -0.272,-0.005 -0.632,-0.047 -1.078,-0.126 -0.554,-0.078 -0.888,-0.126 -1.006,-0.14 -0.168,0.244 -0.257,0.592 -0.267,1.039 -0.015,0.966 -0.015,1.385 -0.002,1.256 0.164,0.095 0.244,0.275 0.239,0.534 -0.02,0.353 -0.022,0.537 -0.01,0.549 -0.083,0.032 -0.127,0.149 -0.129,0.351 -0.13,-0.049 -0.264,-0.146 -0.401,-0.291 -0.187,-0.179 -0.284,0.431 -0.271,0.279 l -0.112,0.363 -0.104,-0.107 c -0.095,0.008 -0.256,-0.041 -0.484,-0.152 -0.229,-0.108 -0.388,-0.209 -0.48,-0.308 0.004,-0.188 0.036,-0.293 0.094,-0.317 l -0.225,-0.25 -0.109,0.156 c -0.132,-1.228 -0.1,-3.525 0.063,-4.819 0.447,0.078 0.941,0.129 1.483,0.149 0.366,0.019 0.877,0.027 1.538,0.027 0.754,0 1.298,0.004 1.628,0.009 0.137,0.131 0.206,0.303 0.202,0.516 -10e-4,0.132 -0.038,0.339 -0.107,0.627 -0.071,0.287 -0.106,0.5 -0.109,0.643"
   id="path100465"
   inkscape:connector-curvature="0"
   style="fill:#010101" />
		<path
   clip-path="url(#SVGID_2_)"
   d="m 597.697,236.666 v -0.01 c 0,0.007 -0.03,0.268 -0.091,0.78 -0.032,0.314 -0.106,0.563 -0.229,0.744 l -0.077,-0.062 c -0.144,0.3 -0.338,0.481 -0.585,0.547 -0.119,0.124 -0.289,0.192 -0.512,0.206 -0.132,0.008 -0.437,-0.031 -0.915,-0.114 -0.231,-0.145 -0.357,-0.225 -0.38,-0.24 -0.145,-0.109 -0.215,-0.22 -0.208,-0.332 -0.142,-0.144 -0.337,-0.4 -0.413,-0.721 -0.091,-0.354 -0.145,-0.373 -0.229,-0.499 -0.133,0.099 -0.181,-0.109 -0.259,-0.235 l 0.069,-0.053 c -0.043,-0.032 -0.065,-0.067 -0.068,-0.106 -0.002,-0.027 0.012,-0.07 0.035,-0.125 0.026,-0.055 0.037,-0.096 0.035,-0.122 -0.004,-0.045 -0.029,-0.084 -0.08,-0.112 0.054,-0.279 0.104,-0.699 0.146,-1.256 0.095,-0.051 0.14,-0.148 0.136,-0.295 -0.006,-0.145 0.014,-0.241 0.06,-0.287 0.226,-0.452 0.591,-0.757 1.098,-0.915 0.028,0.003 0.163,0.002 0.408,-0.007 0.167,-0.003 0.293,0.01 0.379,0.046 0.15,-0.027 0.304,0.011 0.456,0.107 0.131,0.101 0.262,0.197 0.394,0.298 0.245,0.266 0.378,0.567 0.397,0.903 0.006,0.11 -10e-4,0.229 -0.021,0.353 -0.183,-0.006 -0.311,0.113 -0.388,0.36 l -0.706,0.066 c -0.074,-0.108 -0.12,-0.252 -0.129,-0.431 -0.005,-0.062 -0.004,-0.151 0,-0.269 0.002,-0.12 0.003,-0.208 0,-0.27 -0.012,-0.184 -0.055,-0.33 -0.132,-0.439 l -0.211,0.123 c -0.087,-0.034 -0.13,-0.086 -0.135,-0.152 -10e-4,-0.021 0.002,-0.056 0.01,-0.097 0.01,-0.044 0.013,-0.073 0.011,-0.09 -0.004,-0.072 -0.069,-0.116 -0.195,-0.133 -0.087,0.797 -0.112,1.614 -0.078,2.452 0.023,0.029 0.092,0.046 0.202,0.058 0.091,0.011 0.138,0.039 0.141,0.084 10e-4,0.017 -0.004,0.039 -0.018,0.068 l -0.069,0.054 c 0.038,0.06 0.061,0.144 0.067,0.249 0.002,0.057 0,0.142 -0.007,0.257 -0.007,0.116 -0.009,0.203 -0.005,0.256 0.01,0.169 0.052,0.296 0.127,0.382 -0.008,0.122 0.043,0.207 0.149,0.252 0.068,-0.027 0.129,-0.041 0.186,-0.045 0.216,-0.012 0.365,0.106 0.449,0.353 0.002,0.006 0,0.048 -0.002,0.126 0.002,0.047 0.023,0.074 0.067,0.089 0.094,-0.056 0.14,-0.156 0.139,-0.303 -0.002,-0.167 0.019,-0.276 0.064,-0.322 -0.012,-0.078 -0.058,-0.19 -0.14,-0.337 -0.081,-0.148 -0.124,-0.263 -0.129,-0.346 -0.005,-0.091 0.021,-0.176 0.078,-0.258 -0.05,-0.015 -0.071,-0.046 -0.068,-0.097 0.003,-0.08 0.004,-0.121 0.004,-0.126 0.387,-0.094 0.777,-0.097 1.172,-0.007"
   id="path100467"
   inkscape:connector-curvature="0"
   style="fill:#010101" />
		<path
   clip-path="url(#SVGID_2_)"
   d="m 600.897,237.322 h -0.009 c -0.042,0.08 -0.054,0.195 -0.04,0.346 0.02,0.213 0.03,0.321 0.03,0.327 -0.032,0.014 -0.075,-0.004 -0.129,-0.047 -0.082,0.031 -0.123,0.082 -0.118,0.155 0,0.011 0.005,0.029 0.014,0.055 10e-4,0.03 0.003,0.051 0.003,0.062 0.003,0.058 -0.013,0.101 -0.051,0.129 -0.094,-0.053 -0.218,-0.085 -0.369,-0.101 -0.153,-0.013 -0.3,-0.028 -0.437,-0.04 -0.003,-0.709 -0.098,-1.404 -0.286,-2.082 0,0.007 -0.005,-0.062 -0.012,-0.211 0,-0.104 -0.023,-0.177 -0.071,-0.222 l -0.065,0.059 c -10e-4,-0.011 0.021,-0.031 0.065,-0.062 0.044,-0.032 0.064,-0.063 0.062,-0.096 -0.001,-0.016 -0.005,-0.03 -0.013,-0.044 l -0.07,-0.052 c -0.122,0.04 -0.177,0.137 -0.168,0.29 0.007,0.105 -0.035,0.179 -0.122,0.22 0.032,0.023 0.051,0.057 0.053,0.09 10e-4,0.022 -10e-4,0.052 -0.01,0.089 -0.008,0.036 -0.011,0.064 -0.01,0.087 0.003,0.044 0.027,0.084 0.074,0.11 0.003,0.033 0.019,0.313 0.05,0.844 0.02,0.339 0.011,0.625 -0.026,0.861 l 0.005,0.133 c -0.044,-0.001 -0.097,-0.001 -0.153,0.002 -0.066,0.003 -0.16,0.014 -0.282,0.029 -0.119,0.015 -0.212,0.023 -0.27,0.027 -0.24,0.014 -0.407,-0.027 -0.502,-0.121 l -0.103,-2.913 c -0.047,-0.143 -0.077,-0.342 -0.093,-0.598 l -0.031,-0.562 c -0.024,-0.274 -0.061,-0.485 -0.106,-0.634 0.02,-0.103 0.108,-0.157 0.263,-0.165 0.097,-0.006 0.227,0.007 0.392,0.04 0.075,-0.035 0.182,-0.058 0.317,-0.066 0.039,-0.003 0.099,-0.003 0.185,-0.003 0.089,-0.005 0.155,-0.009 0.193,-0.011 0.254,-0.013 0.42,-0.092 0.502,-0.232 0.118,-0.002 0.244,0.035 0.382,0.11 0.136,0.076 0.257,0.117 0.361,0.121 0.274,0.16 0.423,0.429 0.445,0.804 0.005,0.083 -0.028,0.414 -0.099,0.991 l -0.473,0.409 c 0.081,0.147 0.178,0.468 0.29,0.964 0.096,0.412 0.238,0.716 0.432,0.908 m -0.873,-3.314 0.011,0.007 c 0.008,0.035 0.004,-0.093 -0.013,-0.382 -0.009,-0.142 -0.06,-0.242 -0.155,-0.305 -0.053,0.075 0.009,0.11 -0.018,0.286 -0.025,0.177 -0.129,0.128 -0.19,0.204 -0.162,0 -0.197,0.099 -0.233,-0.056 -0.073,-0.253 -0.135,-0.23 -0.136,-0.235 l -0.069,0.041 c -0.024,0.021 -0.052,0.048 -0.083,0.076 -0.03,0.027 -0.062,0.036 -0.095,0.029 0.002,0.03 -0.014,0.08 -0.046,0.146 -0.032,0.068 -0.046,0.112 -0.045,0.14 0.002,0.048 0.039,0.082 0.112,0.104 -0.013,0.104 -0.016,0.215 -0.01,0.327 0.005,0.063 0.019,0.206 0.044,0.43 0.031,0.175 0.041,0.325 0.036,0.451 0.059,0.001 0.112,0.001 0.165,-0.002 0.229,-0.014 0.375,-0.103 0.442,-0.268 0.022,-0.048 0.048,-0.223 0.077,-0.521 0.026,-0.224 0.094,-0.384 0.206,-0.472"
   id="path100469"
   inkscape:connector-curvature="0"
   style="fill:#010101" />
		<path
   clip-path="url(#SVGID_2_)"
   d="m 604.569,238.453 c -0.092,-0.027 -0.19,-0.036 -0.294,-0.031 -0.091,0.006 -0.212,0.029 -0.365,0.068 -0.174,0.041 -0.292,0.066 -0.355,0.075 -0.078,-0.104 -0.138,-0.252 -0.182,-0.443 -0.075,-0.277 -0.121,-0.434 -0.136,-0.47 0.02,-0.03 0.027,-0.058 0.025,-0.08 -0.004,-0.056 -0.062,-0.104 -0.178,-0.142 -0.117,-0.037 -0.174,-0.069 -0.176,-0.095 -0.002,-0.032 0.059,-0.082 0.186,-0.152 -0.034,-0.028 -0.063,-0.092 -0.084,-0.187 -0.021,-0.096 -0.056,-0.157 -0.104,-0.187 -0.073,0.063 -0.199,0.107 -0.375,0.137 -0.178,0.027 -0.293,0.06 -0.351,0.096 0.038,0.403 0,1.113 -0.16,1.264 -0.09,-0.011 -0.156,0.021 -0.197,0.099 -0.061,0.092 -0.112,0.146 -0.157,0.165 l 0.062,0.051 c -0.049,0.041 -0.133,0.06 -0.248,0.062 -0.182,0.005 -0.278,0.009 -0.292,0.009 l -0.066,-0.138 0.272,-4.683 c -0.014,-0.266 -0.012,-0.446 0.007,-0.54 -0.026,-0.233 0.029,-0.383 0.169,-0.449 0.094,0.042 0.207,0.058 0.344,0.051 0.109,-0.007 0.279,-0.035 0.51,-0.092 0.231,-0.055 0.39,-0.085 0.481,-0.09 0.316,-0.02 0.469,0.154 0.458,0.521 -0.01,0.291 0.077,0.67 0.261,1.135 0.191,0.499 0.293,0.877 0.309,1.133 0.004,0.078 0.109,0.243 0.107,0.321 -0.134,0.07 -0.307,0.119 -0.518,0.146 -0.188,0.022 -0.377,0.045 -0.57,0.064 -0.08,-0.392 -0.266,-0.866 -0.346,-1.255 -0.098,-0.463 -0.205,-0.841 -0.317,-1.14 l -0.124,2.247 c -0.009,0.192 0.107,0.282 0.348,0.269 0.076,-0.005 0.149,-0.025 0.219,-0.06 0.059,-0.019 0.141,0.011 0.249,0.087 0.009,0.162 0.057,0.256 0.143,0.281 0.101,-0.062 0.232,-0.126 0.397,-0.188 0.146,-0.055 0.289,-0.107 0.429,-0.156 0.089,0.083 0.15,0.213 0.188,0.387 0.047,0.248 0.078,0.392 0.092,0.434 0.02,0.098 0.086,0.309 0.202,0.631 0.087,0.255 0.135,0.463 0.144,0.625 0.004,0.077 0.002,0.15 -0.007,0.22"
   id="path100471"
   inkscape:connector-curvature="0"
   style="fill:#010101" />
		<path
   clip-path="url(#SVGID_2_)"
   d="m 607.245,233.139 h 0.011 c -0.078,0.114 -0.178,0.137 -0.298,0.064 -0.027,-0.005 -0.142,0.004 -0.35,0.021 -0.174,0.011 -0.3,0 -0.381,-0.025 -0.02,0.002 -0.059,0.021 -0.113,0.059 -0.056,0.037 -0.095,0.056 -0.124,0.058 -0.037,0.003 -0.059,-0.031 -0.063,-0.099 0,-0.009 -0.003,-0.055 -0.007,-0.133 -0.003,-0.052 -0.028,-0.087 -0.074,-0.104 l -0.121,0.094 c -0.037,0.027 -0.056,0.057 -0.053,0.089 10e-4,0.025 0.022,0.062 0.064,0.108 0.041,0.048 0.066,0.082 0.073,0.101 0,0.018 0.016,0.251 0.041,0.704 0.01,0.287 0.062,0.516 0.157,0.687 0.023,-0.027 0.083,-0.043 0.177,-0.045 0.094,-0.003 0.156,-0.023 0.187,-0.062 0.062,0.053 0.162,0.057 0.306,0.009 0.145,-0.048 0.248,-0.032 0.311,0.05 l -0.02,0.689 c -0.058,-0.009 -0.145,-0.037 -0.257,-0.087 -0.034,0.101 -0.099,0.165 -0.192,0.19 -0.039,0.014 -0.149,0.024 -0.33,0.034 0.005,-0.03 -0.022,-0.062 -0.084,-0.095 -0.176,0.083 -0.242,0.282 -0.197,0.598 0.005,-0.032 0.01,0.022 0.02,0.163 0.005,0.087 -0.015,0.152 -0.058,0.191 -0.108,0.015 -0.249,-0.009 -0.418,-0.073 -0.168,-0.066 -0.29,-0.098 -0.36,-0.094 -0.031,0.001 -0.062,0.007 -0.087,0.014 l -0.183,0.056 -0.289,-3.152 -0.034,-0.6 c 0.24,-0.08 0.54,-0.133 0.896,-0.153 0.278,-0.016 0.642,-0.014 1.09,0.007 0.029,-0.058 0.082,0.019 0.147,0.016 0.031,-0.002 0.08,10e-4 0.146,0.01 0.064,0.011 0.114,0.014 0.146,0.012 0.039,-0.001 0.073,-0.01 0.104,-0.021 l 0.047,-0.05 c 0.131,0.039 0.2,0.109 0.206,0.206 0.003,0.043 -0.01,0.114 -0.037,0.213 -0.026,0.103 -0.038,0.179 -0.035,0.23 0.004,0.043 0.015,0.085 0.036,0.12 m -1.133,5.259 c -0.069,0.036 -0.176,0.056 -0.318,0.066 -0.187,0.01 -0.3,0.021 -0.339,0.027 -0.021,-0.021 -0.046,-0.004 -0.087,-0.169 -0.026,-0.107 -0.094,-0.158 -0.203,-0.151 -0.026,0.002 -0.057,0.005 -0.097,0.012 l -0.175,0.012 -0.093,-1.596 c 0.095,-0.046 0.214,-0.075 0.354,-0.083 0.137,-0.007 0.258,0.007 0.361,0.041 -0.002,0.06 0.081,0.083 0.249,0.071 l 0.184,-0.011 c 0.112,0.449 0.18,1.259 0.164,1.781"
   id="path100473"
   inkscape:connector-curvature="0"
   style="fill:#010101" />
		<path
   clip-path="url(#SVGID_2_)"
   d="m 611.122,233.276 0.01,0.007 c -0.092,-0.007 -0.385,0.014 -0.609,0.043 -0.192,0.022 -0.338,0.025 -0.436,0.01 -0.094,0.063 -0.129,0.148 -0.103,0.256 l 0.06,0.036 c -0.05,0.046 -0.066,0.078 -0.051,0.105 l 0.051,0.051 c -0.011,0.925 -0.014,1.436 -0.008,1.535 0.015,0.243 0.044,0.458 0.086,0.646 -0.039,0.115 -0.054,0.25 -0.045,0.399 0.006,0.1 0.029,0.254 0.07,0.471 0.043,0.213 0.098,0.916 0.104,1.027 0.004,0.081 0.003,0.161 -0.006,0.232 -0.09,0.038 -0.186,0.059 -0.288,0.065 -0.175,0.01 -0.362,-0.025 -0.562,-0.109 -0.024,0.022 -0.052,0.046 -0.083,0.071 -0.031,0.026 -0.039,0.055 -0.024,0.086 -0.063,0.017 -0.153,-0.007 -0.268,-0.08 -0.061,-0.938 -0.228,-2.843 -0.476,-4.77 -0.088,0.078 -0.248,0.014 -0.416,0.034 -0.199,0.022 -0.395,-0.009 -0.471,0.027 -0.097,-0.104 -0.076,-0.135 -0.085,-0.307 -0.011,-0.165 -0.064,-0.575 -0.022,-0.748 0.011,-0.037 0.372,-0.015 0.585,-0.034 0.291,-0.017 0.355,0.053 0.374,0.052 0.024,-0.038 0.165,-0.019 0.268,-0.025 0.068,0.032 0.142,-0.029 0.144,0.019 10e-4,0.03 0,0.227 -0.022,0.282 -0.023,0.059 -0.034,0.099 -0.032,0.125 0.004,0.061 0.049,-0.029 0.154,0.007 0.116,-0.004 0.235,-0.007 0.358,-0.014 0.138,0.012 0.294,-0.038 0.282,0.078 0.024,-0.032 0.038,0.025 0.235,-0.055 0.145,-0.066 0.233,-0.236 0.205,-0.353 -0.016,-0.064 0.072,-0.107 0.018,-0.076 0.07,-0.04 0.006,-0.013 0.082,-0.043 0.242,0.023 0.376,-0.002 0.421,-0.004 0.097,-0.007 0.339,0.057 0.407,0.021 0.05,0.093 0.074,0.377 0.078,0.533 0.01,0.251 0.014,0.384 0.015,0.4"
   id="path100475"
   inkscape:connector-curvature="0"
   style="fill:#010101" />
		<path
   clip-path="url(#SVGID_2_)"
   d="m 614.265,236.531 -0.002,-0.008 c -0.034,0.069 -0.054,0.149 -0.055,0.238 -0.005,0.056 10e-4,0.138 0.014,0.241 0.014,0.12 0.021,0.201 0.025,0.249 -0.053,0.004 -0.26,0.014 -0.622,0.038 -0.219,0.012 -0.415,0.04 -0.589,0.088 l -0.192,-0.146 c -0.048,0.046 -0.064,0.08 -0.051,0.105 -0.032,-0.003 -0.183,0.006 -0.446,0.025 -0.207,0.013 -0.363,0.006 -0.47,-0.02 -0.097,0.094 -0.22,0.102 -0.366,0.021 -0.053,-0.027 -0.063,-0.081 -0.029,-0.16 0.034,-0.076 0.019,-0.133 -0.05,-0.165 -10e-4,-0.165 0.006,-0.424 0.024,-0.774 0.021,-0.315 0.025,-0.561 0.015,-0.738 -0.013,-0.238 -0.053,-0.465 -0.115,-0.681 0.066,-0.062 0.146,-0.094 0.235,-0.099 0.104,-0.009 0.229,0.025 0.377,0.094 0.206,0.099 0.311,0.147 0.318,0.147 l 0.061,0.05 c 0.007,-0.016 0.034,-0.101 0.083,-0.256 0.026,-0.101 0.072,-0.168 0.135,-0.202 l 0.06,0.042 c 0.025,-0.01 0.107,-0.064 0.245,-0.161 0.105,-0.07 0.179,-0.322 0.244,-0.326 0.069,-0.005 0.14,0.022 0.208,0.08 0.112,0.041 0.201,0.326 0.242,0.419 0.041,0.094 0.081,0.188 0.12,0.279 -0.291,0.027 -0.531,0.04 -0.719,0.034 -0.041,0.06 -0.107,0.073 -0.192,0.04 -0.086,-0.034 -0.147,-0.024 -0.183,0.03 0.006,0.092 0.014,0.263 0.028,0.506 0.007,0.218 0.017,0.39 0.03,0.515 0.017,0.192 0.048,0.367 0.09,0.527 0.051,-0.005 0.297,-0.019 0.736,-0.042 0.304,-0.016 0.566,-0.015 0.791,0.01 m -0.303,-3.668 c -0.057,0.007 -0.123,0.015 -0.194,0.019 -0.146,0.008 -0.344,0.003 -0.593,-0.014 -0.306,-0.014 -0.491,-0.021 -0.556,-0.022 -0.083,0.114 -0.096,0.208 -0.083,0.405 0.025,0.426 0.039,0.611 0.041,0.552 0.093,0.038 0.144,0.112 0.149,0.229 0.003,0.155 0.007,0.235 0.016,0.24 -0.046,0.017 -0.065,0.071 -0.06,0.16 -0.072,-0.017 -0.15,-0.055 -0.23,-0.112 -0.109,-0.071 -0.143,0.184 -0.14,0.115 l -0.05,0.16 -0.061,-0.046 c -0.051,0.009 -0.142,-0.007 -0.27,-0.046 -0.129,-0.039 -0.221,-0.078 -0.274,-0.117 -0.003,-0.082 0.008,-0.13 0.039,-0.144 l -0.132,-0.102 -0.054,0.074 c -0.114,-0.536 -0.192,-1.481 -0.147,-2.057 0.246,0.017 0.536,-0.026 0.834,-0.038 0.199,-0.009 0.48,-0.021 0.844,-0.049 0.412,-0.029 0.709,-0.05 0.89,-0.06 0.081,0.053 0.125,0.126 0.129,0.22 0.005,0.058 -0.007,0.149 -0.035,0.279 -0.03,0.131 -0.066,0.289 -0.063,0.354"
   id="path100477"
   inkscape:connector-curvature="0"
   style="fill:#010101" />
		<path
   clip-path="url(#SVGID_2_)"
   d="m 617.487,235.977 -0.01,0.002 c -0.04,0.08 -0.054,0.195 -0.038,0.346 0.021,0.213 0.028,0.321 0.028,0.327 -0.032,0.013 -0.074,-0.002 -0.129,-0.047 -0.084,0.031 -0.123,0.082 -0.117,0.155 0,0.011 0.005,0.027 0.013,0.053 10e-4,0.031 0.002,0.053 0.004,0.063 0.003,0.058 -0.015,0.101 -0.051,0.129 -0.095,-0.053 -0.219,-0.087 -0.372,-0.101 -0.151,-0.015 -0.296,-0.028 -0.436,-0.042 -0.002,-0.709 -0.097,-1.402 -0.284,-2.08 0,0.007 -0.005,-0.064 -0.013,-0.211 0,-0.104 -0.023,-0.177 -0.071,-0.222 l -0.064,0.058 c 0,-0.01 0.021,-0.03 0.064,-0.061 0.043,-0.032 0.065,-0.063 0.062,-0.096 -0.002,-0.016 -0.005,-0.03 -0.013,-0.046 l -0.071,-0.051 c -0.121,0.039 -0.177,0.134 -0.166,0.291 0.006,0.104 -0.037,0.179 -0.125,0.22 0.033,0.023 0.052,0.055 0.054,0.09 0.002,0.021 -0.002,0.05 -0.01,0.086 -0.006,0.037 -0.011,0.066 -0.009,0.088 0.003,0.046 0.025,0.084 0.074,0.114 0.002,0.03 0.018,0.31 0.049,0.842 0.02,0.337 0.012,0.625 -0.027,0.861 l 0.008,0.133 c -0.044,-0.003 -0.098,-0.003 -0.156,0.002 -0.064,0.003 -0.158,0.012 -0.281,0.027 -0.121,0.016 -0.211,0.025 -0.27,0.027 -0.238,0.014 -0.406,-0.025 -0.502,-0.119 l -0.103,-2.913 c -0.046,-0.143 -0.078,-0.342 -0.093,-0.598 l -0.033,-0.561 c -0.021,-0.275 -0.056,-0.488 -0.104,-0.637 0.02,-0.099 0.107,-0.155 0.263,-0.164 0.098,-0.006 0.227,0.008 0.392,0.041 0.076,-0.037 0.181,-0.06 0.316,-0.066 0.038,-0.001 0.101,-0.003 0.184,-0.003 0.091,-0.005 0.157,-0.009 0.194,-0.012 0.252,-0.014 0.42,-0.093 0.503,-0.231 0.117,0 0.243,0.035 0.38,0.11 0.138,0.076 0.259,0.115 0.364,0.119 0.273,0.162 0.423,0.429 0.443,0.806 0.005,0.083 -0.027,0.414 -0.098,0.991 l -0.474,0.41 c 0.082,0.146 0.178,0.467 0.291,0.961 0.096,0.414 0.242,0.716 0.434,0.909 m -0.873,-3.313 0.011,0.007 c 0.007,0.035 0.004,-0.093 -0.014,-0.382 -0.009,-0.144 -0.06,-0.244 -0.155,-0.305 -0.051,0.074 -0.062,-0.103 -0.086,0.074 -0.027,0.178 -0.068,0.302 -0.129,0.38 -0.163,-10e-4 -0.2,-0.099 -0.297,-0.233 -0.061,-0.087 -0.09,-0.012 -0.09,-0.017 l -0.044,0.036 c -0.025,0.021 -0.053,0.047 -0.083,0.074 -0.03,0.029 -0.063,0.038 -0.097,0.029 0.003,0.03 -0.013,0.082 -0.045,0.148 -0.03,0.066 -0.046,0.112 -0.044,0.14 0.002,0.046 0.039,0.08 0.112,0.102 -0.012,0.105 -0.017,0.215 -0.01,0.331 0.005,0.062 0.018,0.204 0.044,0.427 0.03,0.176 0.041,0.326 0.035,0.452 0.061,0.001 0.114,0.001 0.167,-0.002 0.226,-0.014 0.373,-0.103 0.44,-0.268 0.022,-0.05 0.049,-0.223 0.078,-0.521 0.027,-0.227 0.096,-0.382 0.207,-0.472"
   id="path100479"
   inkscape:connector-curvature="0"
   style="fill:#010101" />
		<path
   clip-path="url(#SVGID_2_)"
   d="m 585.346,222.541 v 0.007 c -0.028,0.271 -0.038,0.459 -0.027,0.561 -0.043,0.018 -0.098,0.021 -0.162,0.009 -0.088,-0.014 -0.138,-0.021 -0.15,-0.021 -0.038,0.002 -0.067,0.016 -0.092,0.039 -0.053,-0.032 -0.088,-0.048 -0.106,-0.043 -0.052,0.031 -0.075,0.073 -0.073,0.13 0.002,0.025 0.012,0.064 0.028,0.123 0.018,0.06 0.027,0.102 0.029,0.129 0,0.038 -0.007,0.097 -0.024,0.179 -0.017,0.082 -0.024,0.146 -0.021,0.199 0.003,0.062 0.017,0.158 0.04,0.29 0.022,0.129 0.035,0.228 0.04,0.295 -0.027,0.127 -0.038,0.259 -0.031,0.39 0.007,0.16 0.053,0.375 0.133,0.646 0.014,0.003 0.027,0.005 0.042,0.003 0.031,0 0.071,-0.025 0.117,-0.069 0.044,-0.043 0.084,-0.066 0.115,-0.068 0.024,-0.002 0.052,0.004 0.079,0.018 0.086,0.272 0.129,0.451 0.134,0.531 0.002,0.037 0.002,0.078 0,0.119 -0.128,0.03 -0.216,-0.012 -0.269,-0.128 0.007,-0.032 -0.013,-0.068 -0.057,-0.104 l -0.142,0.149 c 0.14,0.021 0.193,0.126 0.166,0.317 -0.013,0.039 -0.041,0.06 -0.089,0.061 -0.082,-0.001 -0.118,-0.001 -0.114,-0.001 l -0.116,-0.206 -0.046,0.058 c -0.039,-0.098 -0.083,-0.144 -0.135,-0.14 -0.028,0.002 -0.078,0.023 -0.149,0.069 -0.069,0.046 -0.13,0.07 -0.176,0.073 -0.037,0.002 -0.074,-0.008 -0.113,-0.028 -0.004,-0.059 -0.012,-0.116 -0.021,-0.178 -0.011,-0.062 -0.043,-0.099 -0.095,-0.115 -0.003,-0.148 0.002,-0.53 0.011,-1.155 0.005,-0.472 0,-0.854 -0.014,-1.146 -0.007,-0.122 -0.016,-0.241 -0.025,-0.357 -0.025,-0.035 -0.05,-0.055 -0.073,-0.055 -0.02,0.002 -0.048,0.022 -0.085,0.062 -0.038,0.041 -0.071,0.058 -0.099,0.055 -0.005,-0.046 -0.026,-0.123 -0.066,-0.227 -0.039,-0.104 -0.062,-0.179 -0.065,-0.227 -0.003,-0.08 0.027,-0.149 0.09,-0.21 l 0.164,0.041 c 0.066,-0.092 0.096,-0.25 0.084,-0.472 -0.003,-0.041 -0.009,-0.108 -0.018,-0.201 -0.01,-0.09 -0.016,-0.156 -0.018,-0.2 -0.018,-0.361 0.093,-0.549 0.333,-0.562 0.089,-0.003 0.197,0.012 0.327,0.05 l 0.158,0.04 c 0.012,0.061 0.021,0.123 0.023,0.189 0.006,0.091 0.002,0.222 -0.012,0.394 -0.014,0.174 -0.017,0.3 -0.014,0.378 0.007,0.13 0.029,0.244 0.068,0.346 0.037,-0.002 0.097,-0.023 0.177,-0.062 0.08,-0.04 0.14,-0.061 0.178,-0.062 0.066,-0.007 0.12,0.023 0.161,0.087 m -0.492,0.506 -0.008,-0.161 -0.051,-0.048 z"
   id="path100481"
   inkscape:connector-curvature="0"
   style="fill:#010101" />
		<path
   clip-path="url(#SVGID_2_)"
   d="m 587.287,222.034 0.007,-0.002 c -0.016,0.129 -0.036,0.257 -0.058,0.387 -0.026,0.146 -0.066,0.262 -0.125,0.346 -0.01,-0.005 -0.067,-0.031 -0.174,-0.084 -0.073,-0.039 -0.138,-0.054 -0.192,-0.047 -0.044,0.277 -0.067,0.652 -0.071,1.129 -0.003,0.609 -0.009,0.978 -0.014,1.104 -0.073,-0.003 -0.125,0.019 -0.16,0.07 -0.035,0.051 -0.068,0.102 -0.099,0.156 -0.013,0.029 -0.019,0.057 -0.017,0.078 10e-4,0.039 0.033,0.075 0.097,0.109 0.064,0.034 0.096,0.071 0.097,0.115 -0.026,0.101 -0.087,0.153 -0.175,0.157 -0.043,0.002 -0.117,-0.012 -0.222,-0.037 -0.104,-0.029 -0.179,-0.041 -0.223,-0.04 l -0.101,-2.018 c 0.041,-0.053 0.057,-0.091 0.052,-0.109 l -0.059,-0.039 c 0.005,-0.085 0.01,-0.51 0.014,-1.269 10e-4,-0.515 0.021,-0.931 0.058,-1.249 -0.004,0.002 0.141,-0.009 0.437,-0.029 0.184,-0.008 0.303,0.043 0.355,0.154 0,0.102 -0.011,0.277 -0.031,0.524 -0.021,0.227 -0.028,0.401 -0.023,0.524 0.009,0.151 0.032,0.286 0.071,0.407 0.16,-0.213 0.344,-0.327 0.556,-0.337 m 0.702,0.431 c 0.014,0.188 0.023,0.371 0.034,0.552 0.039,0.78 0.026,1.616 -0.036,2.506 -0.068,0.061 -0.172,0.074 -0.313,0.04 -0.14,-0.034 -0.243,-0.019 -0.306,0.04 -0.081,-0.104 -0.127,-0.292 -0.143,-0.566 -0.019,-0.395 -0.029,-0.599 -0.03,-0.612 -0.018,-0.99 0.08,-1.79 0.29,-2.4 0.244,0.062 0.411,0.208 0.504,0.44"
   id="path100483"
   inkscape:connector-curvature="0"
   style="fill:#010101" />
		<path
   clip-path="url(#SVGID_2_)"
   d="m 590.466,223.492 c -0.03,0.061 -0.043,0.127 -0.04,0.197 0.004,0.071 0.007,0.14 0.012,0.206 -0.008,0.056 -0.023,0.112 -0.049,0.174 -0.043,-0.014 -0.078,-0.019 -0.107,-0.018 -0.032,0.002 -0.066,0.014 -0.1,0.036 -0.034,0.023 -0.062,0.036 -0.08,0.036 -0.029,0.003 -0.066,-0.009 -0.115,-0.029 l -0.328,-0.479 c 0.012,0.142 0.044,0.264 0.097,0.371 0.026,0.055 0.053,0.109 0.078,0.164 -0.191,0.035 -0.3,0.04 -0.323,0.017 l -0.047,0.06 -0.114,-0.15 c -0.089,0.109 -0.108,0.268 -0.061,0.478 0.059,0.229 0.062,0.394 0.011,0.495 0.071,0.106 0.155,0.153 0.255,0.15 0.043,-0.004 0.079,-0.018 0.111,-0.048 0.046,-0.117 0.092,-0.231 0.138,-0.348 0.07,-0.142 0.145,-0.213 0.229,-0.216 0.065,-0.006 0.144,0.03 0.232,0.102 0.105,0.038 0.16,0.086 0.163,0.146 10e-4,0.038 -0.022,0.101 -0.073,0.185 -0.048,0.085 -0.073,0.151 -0.07,0.199 10e-4,0.017 0.004,0.034 0.009,0.049 -0.067,0.05 -0.127,0.126 -0.183,0.227 -0.054,0.104 -0.125,0.173 -0.213,0.212 -0.076,0.073 -0.147,0.112 -0.212,0.115 -0.053,0.002 -0.132,-0.037 -0.233,-0.119 -0.104,-0.083 -0.199,-0.121 -0.289,-0.117 -0.036,-0.082 -0.129,-0.176 -0.275,-0.276 -0.146,-0.1 -0.237,-0.209 -0.272,-0.325 0.001,0.009 0,-0.029 -0.005,-0.112 -0.003,-0.048 -0.022,-0.078 -0.062,-0.09 l 0.053,-0.052 c -0.071,-0.002 -0.106,-0.041 -0.11,-0.122 0,-0.009 -0.002,-0.027 -0.002,-0.059 0.002,-0.021 0.004,-0.04 0.004,-0.056 -0.004,-0.057 -0.022,-0.094 -0.057,-0.117 l -0.012,-0.246 c -0.007,-0.127 -0.032,-0.22 -0.078,-0.272 0.046,-0.3 0.093,-0.6 0.14,-0.899 0.076,-0.347 0.19,-0.525 0.341,-0.534 0.023,0 0.047,0.003 0.069,0.01 0.138,-0.133 0.3,-0.206 0.493,-0.215 0.212,-0.01 0.447,0.055 0.703,0.191 0.2,0.329 0.324,0.689 0.372,1.079 m -0.973,-0.782 -0.048,0.06 c -0.032,0.007 -0.071,-0.01 -0.116,-0.05 l 0.01,0.162 c -0.072,0.078 -0.101,0.201 -0.088,0.366 0.014,0.283 0.021,0.417 0.021,0.409 l 0.211,-0.004 c 0.101,-0.058 0.149,-0.151 0.142,-0.282 -0.004,-0.066 -0.024,-0.176 -0.07,-0.327 -0.043,-0.15 -0.064,-0.261 -0.062,-0.334"
   id="path100485"
   inkscape:connector-curvature="0"
   style="fill:#010101" />
		<polygon
   clip-path="url(#SVGID_2_)"
   points="593.049,228.862 592.81,228.782 592.097,230.655 592.305,230.788 592.125,230.613 592.335,230.733 "
   id="polygon100487"
   style="clip-rule:evenodd;fill:#010101;fill-rule:evenodd" />
		<polygon
   clip-path="url(#SVGID_2_)"
   points="592.126,230.613 592.305,230.788 592.535,230.55 592.446,230.596 592.437,230.354 592.351,230.388 "
   id="polygon100489"
   style="clip-rule:evenodd;fill:#010101;fill-rule:evenodd" />
		<polygon
   clip-path="url(#SVGID_2_)"
   points="592.438,230.354 592.444,230.596 594.273,230.502 594.39,230.415 594.164,230.341 594.266,230.261 "
   id="polygon100491"
   style="clip-rule:evenodd;fill:#010101;fill-rule:evenodd" />
		<polygon
   clip-path="url(#SVGID_2_)"
   points="594.165,230.341 594.39,230.417 595.103,228.542 594.979,228.387 594.99,228.618 594.864,228.464 "
   id="polygon100493"
   style="clip-rule:evenodd;fill:#010101;fill-rule:evenodd" />
		<polygon
   clip-path="url(#SVGID_2_)"
   points="594.99,228.618 594.979,228.387 593.154,228.469 593.063,228.515 593.247,228.678 593.156,228.723 "
   id="polygon100495"
   style="clip-rule:evenodd;fill:#010101;fill-rule:evenodd" />
		<polygon
   clip-path="url(#SVGID_2_)"
   points="593.248,228.678 593.064,228.515 592.836,228.741 592.811,228.782 593.049,228.862 593.021,228.903 "
   id="polygon100497"
   style="clip-rule:evenodd;fill:#010101;fill-rule:evenodd" />
		<polygon
   clip-path="url(#SVGID_2_)"
   points="594.73,230.49 594.337,230.272 594.214,230.494 594.616,230.717 594.793,230.639 594.555,230.559 594.566,230.562 "
   id="polygon100499"
   style="clip-rule:evenodd;fill:#010101;fill-rule:evenodd" />
		<polygon
   clip-path="url(#SVGID_2_)"
   points="594.555,230.559 594.793,230.639 595.506,228.765 595.441,228.618 595.333,228.833 595.269,228.685 "
   id="polygon100501"
   style="clip-rule:evenodd;fill:#010101;fill-rule:evenodd" />
		<polygon
   clip-path="url(#SVGID_2_)"
   points="595.333,228.833 595.442,228.618 595.051,228.398 594.864,228.464 595.103,228.542 594.926,228.622 "
   id="polygon100503"
   style="clip-rule:evenodd;fill:#010101;fill-rule:evenodd" />
		<polygon
   clip-path="url(#SVGID_2_)"
   points="595.393,228.728 595.506,228.765 595.459,228.886 596.29,230.86 595.588,232.737 594.68,230.601 594.563,230.648 594.555,230.559 594.564,230.536 594.278,230.378 594.213,230.494 594.178,230.383 592.438,230.467 592.21,230.693 592.935,228.824 592.923,228.821 593.15,228.595 594.846,228.511 594.864,228.464 594.989,228.504 595.102,228.542 595.097,228.562 "
   id="polygon100505"
   style="fill:#010101" />
		<polygon
   clip-path="url(#SVGID_2_)"
   points="595.704,232.688 594.797,230.552 594.563,230.648 595.471,232.786 595.701,232.774 595.463,232.696 595.475,232.699 "
   id="polygon100507"
   style="clip-rule:evenodd;fill:#010101;fill-rule:evenodd" />
		<polygon
   clip-path="url(#SVGID_2_)"
   points="595.464,232.696 595.701,232.774 596.415,230.902 596.407,230.812 596.185,230.914 596.176,230.822 "
   id="polygon100509"
   style="clip-rule:evenodd;fill:#010101;fill-rule:evenodd" />
		<polygon
   clip-path="url(#SVGID_2_)"
   points="596.185,230.914 596.407,230.812 595.499,228.675 595.269,228.685 595.506,228.765 595.275,228.775 "
   id="polygon100511"
   style="clip-rule:evenodd;fill:#010101;fill-rule:evenodd" />
		<polygon
   clip-path="url(#SVGID_2_)"
   points="594.8,230.916 594.669,230.974 594.537,231.028 594.39,231.056 594.253,231.087 594.122,231.104 593.979,231.119 593.847,231.102 593.712,231.093 593.594,231.067 593.47,231.025 593.351,230.974 593.245,230.913 593.154,230.845 593.052,230.771 592.969,230.683 592.901,230.584 592.798,230.362 592.762,230.135 592.762,229.909 592.838,229.683 592.935,229.465 593.094,229.254 593.294,229.069 593.545,228.915 593.667,228.855 593.811,228.801 593.945,228.771 594.081,228.743 594.225,228.726 594.355,228.709 594.488,228.726 594.625,228.734 594.748,228.775 594.873,228.817 594.985,228.855 595.102,228.92 595.196,228.975 595.295,229.058 595.363,229.156 595.445,229.247 595.547,229.47 595.585,229.695 595.573,229.918 595.51,230.147 595.396,230.373 595.243,230.573 595.042,230.758 "
   id="polygon100513"
   style="clip-rule:evenodd;fill:#ffffff;fill-rule:evenodd" />
		<polygon
   clip-path="url(#SVGID_2_)"
   points="594.892,231.286 594.756,231.354 594.624,231.41 594.487,231.439 594.341,231.468 594.209,231.485 594.08,231.493 593.944,231.485 593.802,231.463 593.685,231.436 593.56,231.395 593.451,231.346 593.335,231.282 593.24,231.225 593.153,231.146 593.067,231.066 592.99,230.953 592.886,230.742 592.848,230.516 592.863,230.282 592.924,230.064 593.025,229.835 593.181,229.634 593.38,229.449 593.632,229.296 593.768,229.229 593.896,229.183 594.035,229.142 594.184,229.116 594.312,229.107 594.443,229.089 594.575,229.107 594.71,229.116 594.839,229.145 594.964,229.186 595.072,229.235 595.193,229.29 595.284,229.356 595.386,229.428 595.452,229.526 595.532,229.629 595.536,229.616 595.637,229.84 595.67,230.076 595.662,230.3 595.599,230.518 595.498,230.747 595.328,230.953 595.145,231.133 "
   id="polygon100515"
   style="clip-rule:evenodd;fill:#010101;fill-rule:evenodd" />
		<polygon
   clip-path="url(#SVGID_2_)"
   points="594.96,231.534 594.835,231.605 594.691,231.659 594.557,231.689 594.408,231.715 594.275,231.735 594.148,231.742 594.013,231.735 593.87,231.712 593.753,231.685 593.628,231.644 593.52,231.594 593.401,231.529 593.308,231.473 593.21,231.392 593.138,231.305 593.059,231.202 592.954,230.993 592.915,230.765 592.927,230.543 592.99,230.313 593.093,230.083 593.252,229.872 593.458,229.703 593.7,229.543 593.836,229.477 593.967,229.419 594.104,229.39 594.251,229.362 594.381,229.346 594.511,229.337 594.658,229.349 594.779,229.362 594.906,229.396 595.031,229.437 595.151,229.487 595.257,229.549 595.351,229.604 595.452,229.676 595.521,229.775 595.599,229.877 595.706,230.088 595.739,230.325 595.727,230.548 595.668,230.767 595.555,230.993 595.396,231.202 595.212,231.38 "
   id="polygon100517"
   style="clip-rule:evenodd;fill:#ffffff;fill-rule:evenodd" />
		<polygon
   clip-path="url(#SVGID_2_)"
   points="595.047,231.916 594.925,231.976 594.781,232.028 594.646,232.059 594.511,232.088 594.365,232.104 594.234,232.122 594.104,232.104 593.967,232.097 593.84,232.065 593.715,232.023 593.604,231.976 593.488,231.911 593.398,231.843 593.308,231.776 593.225,231.685 593.146,231.584 593.056,231.364 593.006,231.134 593.019,230.913 593.081,230.681 593.19,230.467 593.349,230.257 593.549,230.071 593.79,229.915 593.923,229.856 594.054,229.801 594.201,229.775 594.337,229.744 594.47,229.726 594.609,229.722 594.744,229.729 594.87,229.732 594.998,229.763 595.122,229.806 595.241,229.856 595.347,229.918 595.45,229.989 595.539,230.058 595.623,230.147 595.687,230.257 595.69,230.245 595.792,230.468 595.83,230.694 595.83,230.92 595.754,231.146 595.656,231.366 595.486,231.572 595.298,231.763 "
   id="polygon100519"
   style="clip-rule:evenodd;fill:#010101;fill-rule:evenodd" />
		<polygon
   clip-path="url(#SVGID_2_)"
   points="595.191,232.152 595.057,232.221 594.913,232.273 594.778,232.305 594.642,232.333 594.499,232.349 594.371,232.357 594.234,232.349 594.104,232.33 593.975,232.299 593.85,232.258 593.74,232.209 593.632,232.159 593.53,232.088 593.442,232.01 593.36,231.918 593.293,231.82 593.188,231.609 593.141,231.369 593.153,231.146 593.225,230.932 593.327,230.701 593.483,230.49 593.681,230.316 593.921,230.16 594.058,230.092 594.189,230.035 594.333,230.021 594.472,229.978 594.604,229.959 594.744,229.955 594.88,229.964 595.001,229.978 595.129,230.009 595.264,230.055 595.372,230.102 595.483,230.151 595.585,230.223 595.671,230.303 595.755,230.394 595.822,230.49 595.929,230.703 595.966,230.928 595.962,231.165 595.901,231.385 595.788,231.611 595.619,231.817 595.436,231.994 "
   id="polygon100521"
   style="clip-rule:evenodd;fill:#ffffff;fill-rule:evenodd" />
		<polygon
   clip-path="url(#SVGID_2_)"
   points="595.278,232.534 595.147,232.591 595.003,232.644 594.869,232.672 594.732,232.703 594.601,232.722 594.458,232.737 594.325,232.718 594.19,232.71 594.073,232.685 593.938,232.638 593.827,232.591 593.724,232.529 593.62,232.458 593.53,232.39 593.447,232.299 593.38,232.202 593.278,231.979 593.229,231.749 593.24,231.526 593.314,231.3 593.413,231.079 593.572,230.87 593.771,230.685 594.023,230.531 594.146,230.472 594.288,230.419 594.424,230.388 594.56,230.359 594.703,230.344 594.835,230.325 594.965,230.344 595.091,230.348 595.23,230.381 595.355,230.424 595.464,230.474 595.57,230.533 595.671,230.604 595.761,230.673 595.844,230.763 595.924,230.865 596.015,231.083 596.063,231.313 596.052,231.534 595.988,231.765 595.878,231.98 595.72,232.191 595.52,232.376 "
   id="polygon100523"
   style="clip-rule:evenodd;fill:#010101;fill-rule:evenodd" />
		<polygon
   clip-path="url(#SVGID_2_)"
   points="582.757,229.801 582.983,229.875 583.698,227.991 583.702,227.942 583.462,227.988 583.474,227.917 "
   id="polygon100525"
   style="clip-rule:evenodd;fill:#010101;fill-rule:evenodd" />
		<polygon
   clip-path="url(#SVGID_2_)"
   points="583.462,227.988 583.703,227.942 583.678,227.833 583.682,227.821 583.443,227.892 583.447,227.881 "
   id="polygon100527"
   style="clip-rule:evenodd;fill:#010101;fill-rule:evenodd" />
		<polygon
   clip-path="url(#SVGID_2_)"
   points="583.417,227.784 583.443,227.892 583.682,227.821 583.654,227.712 "
   id="polygon100529"
   style="clip-rule:evenodd;fill:#010101;fill-rule:evenodd" />
		
			<rect
   x="583.46899"
   y="227.575"
   transform="matrix(-0.2961,-0.9552,0.9552,-0.2961,538.8116,852.4745)"
   clip-path="url(#SVGID_2_)"
   width="0.102"
   height="0.248"
   id="rect100531"
   style="clip-rule:evenodd;fill:#010101;fill-rule:evenodd" />
		<polygon
   clip-path="url(#SVGID_2_)"
   points="583.625,227.615 583.597,227.506 583.595,227.517 583.36,227.576 583.387,227.687 "
   id="polygon100533"
   style="clip-rule:evenodd;fill:#010101;fill-rule:evenodd" />
		<polygon
   clip-path="url(#SVGID_2_)"
   points="583.36,227.576 583.595,227.517 583.563,227.418 583.576,227.46 583.33,227.441 583.33,227.479 "
   id="polygon100535"
   style="clip-rule:evenodd;fill:#010101;fill-rule:evenodd" />
		<polygon
   clip-path="url(#SVGID_2_)"
   points="583.334,227.354 583.33,227.441 583.576,227.46 583.578,227.373 583.341,227.331 583.567,227.405 583.57,227.396 "
   id="polygon100537"
   style="clip-rule:evenodd;fill:#010101;fill-rule:evenodd" />
		<polygon
   clip-path="url(#SVGID_2_)"
   points="583.776,232.88 583.755,232.759 583.503,232.8 583.521,232.933 "
   id="polygon100539"
   style="clip-rule:evenodd;fill:#4d494a;fill-rule:evenodd" />
		<polygon
   clip-path="url(#SVGID_2_)"
   points="583.597,233.122 583.823,233.195 584.536,231.323 584.531,231.259 584.302,231.31 584.309,231.248 "
   id="polygon100541"
   style="clip-rule:evenodd;fill:#010101;fill-rule:evenodd" />
		<polygon
   clip-path="url(#SVGID_2_)"
   points="584.515,231.127 584.271,231.173 584.282,231.177 584.302,231.31 584.531,231.259 "
   id="polygon100543"
   style="clip-rule:evenodd;fill:#010101;fill-rule:evenodd" />
		<polygon
   clip-path="url(#SVGID_2_)"
   points="584.249,231.053 584.271,231.173 584.515,231.127 584.48,231.003 "
   id="polygon100545"
   style="clip-rule:evenodd;fill:#010101;fill-rule:evenodd" />
		<polygon
   clip-path="url(#SVGID_2_)"
   points="584.249,231.053 584.479,231.003 584.46,230.87 584.468,230.887 584.219,230.916 584.227,230.932 "
   id="polygon100547"
   style="clip-rule:evenodd;fill:#010101;fill-rule:evenodd" />
		<polygon
   clip-path="url(#SVGID_2_)"
   points="584.219,230.916 584.467,230.887 584.448,230.756 584.208,230.726 584.445,230.804 584.204,230.771 "
   id="polygon100549"
   style="clip-rule:evenodd;fill:#010101;fill-rule:evenodd" />
		<path
   clip-path="url(#SVGID_2_)"
   d="m 582.758,229.426 -0.115,0.034 z"
   id="path100551"
   inkscape:connector-curvature="0"
   style="fill:#4d494a" />
		<polygon
   clip-path="url(#SVGID_2_)"
   points="582.983,229.874 582.878,229.842 582.877,229.819 582.881,229.809 582.939,229.812 "
   id="polygon100553"
   style="fill:#4d494a" />
		<polygon
   clip-path="url(#SVGID_2_)"
   points="583.542,227.752 583.567,227.858 583.586,227.954 583.699,227.991 582.983,229.875 582.939,229.812 582.881,229.809 582.877,229.819 582.878,229.842 582.983,229.875 582.878,229.868 582.881,229.955 582.81,229.865 582.748,229.86 582.733,229.755 582.777,229.746 582.823,229.625 582.704,229.657 582.67,229.57 582.643,229.46 582.758,229.426 582.643,229.46 582.646,229.449 582.616,229.353 582.739,229.329 582.741,229.242 583.458,227.359 583.454,227.37 583.454,227.445 583.474,227.54 583.511,227.652 "
   id="polygon100555"
   style="fill:#010101" />
		<polygon
   clip-path="url(#SVGID_2_)"
   points="588.697,229.696 588.822,229.776 588.846,229.783 588.942,229.867 588.974,229.889 589.045,229.975 589.052,229.991 589.101,230.069 589.104,230.095 588.874,230.167 588.837,230.108 588.834,230.119 588.774,230.035 588.774,230.035 588.693,229.971 588.713,229.991 588.584,229.923 588.585,229.922 588.452,229.867 588.34,229.828 588.211,229.799 588.234,229.806 588.113,229.79 588.113,229.78 582.881,229.955 582.873,229.714 588.122,229.542 588.256,229.549 588.279,229.559 588.408,229.586 588.418,229.593 588.556,229.637 588.687,229.693 "
   id="polygon100557"
   style="fill:#010101" />
		<polygon
   clip-path="url(#SVGID_2_)"
   points="588.887,230.188 588.868,230.168 588.874,230.167 "
   id="polygon100559"
   style="fill:#010101" />
		<polygon
   clip-path="url(#SVGID_2_)"
   points="590.954,236.38 591.191,236.46 591.908,234.574 591.908,234.501 591.67,234.571 591.67,234.496 "
   id="polygon100561"
   style="clip-rule:evenodd;fill:#010101;fill-rule:evenodd" />
		<polygon
   clip-path="url(#SVGID_2_)"
   points="591.67,234.571 591.908,234.501 589.821,228.211 589.817,228.188 589.6,228.313 589.583,228.284 "
   id="polygon100563"
   style="clip-rule:evenodd;fill:#010101;fill-rule:evenodd" />
		<polygon
   clip-path="url(#SVGID_2_)"
   points="589.551,228.235 589.6,228.313 589.817,228.188 589.769,228.107 589.757,228.103 589.546,228.247 589.558,228.251 "
   id="polygon100565"
   style="clip-rule:evenodd;fill:#010101;fill-rule:evenodd" />
		<polygon
   clip-path="url(#SVGID_2_)"
   points="589.546,228.247 589.758,228.103 589.679,228.002 589.659,227.981 589.509,228.171 589.489,228.153 "
   id="polygon100567"
   style="clip-rule:evenodd;fill:#010101;fill-rule:evenodd" />
		<polygon
   clip-path="url(#SVGID_2_)"
   points="589.51,228.171 589.66,227.981 589.558,227.911 589.539,227.892 589.426,228.118 589.407,228.099 "
   id="polygon100569"
   style="clip-rule:evenodd;fill:#010101;fill-rule:evenodd" />
		<polygon
   clip-path="url(#SVGID_2_)"
   points="589.426,228.118 589.539,227.892 589.409,227.825 589.399,227.821 589.312,228.043 589.301,228.039 "
   id="polygon100571"
   style="clip-rule:evenodd;fill:#010101;fill-rule:evenodd" />
		<polygon
   clip-path="url(#SVGID_2_)"
   points="589.166,227.993 589.312,228.043 589.399,227.821 589.267,227.764 589.256,227.76 589.178,227.997 589.192,227.99 "
   id="polygon100573"
   style="clip-rule:evenodd;fill:#010101;fill-rule:evenodd" />
		<polygon
   clip-path="url(#SVGID_2_)"
   points="589.178,227.997 589.256,227.76 589.12,227.716 589.052,227.956 589.056,227.945 589.04,227.952 "
   id="polygon100575"
   style="clip-rule:evenodd;fill:#010101;fill-rule:evenodd" />
		<polygon
   clip-path="url(#SVGID_2_)"
   points="589.052,227.956 589.12,227.716 588.981,227.682 588.97,227.677 588.951,227.922 588.929,227.915 "
   id="polygon100577"
   style="clip-rule:evenodd;fill:#010101;fill-rule:evenodd" />
		<polygon
   clip-path="url(#SVGID_2_)"
   points="588.951,227.922 588.97,227.677 588.837,227.656 588.822,227.666 588.829,227.906 588.826,227.917 "
   id="polygon100579"
   style="clip-rule:evenodd;fill:#010101;fill-rule:evenodd" />
		<polygon
   clip-path="url(#SVGID_2_)"
   points="583.583,228.077 588.829,227.906 588.821,227.666 583.586,227.842 583.474,227.917 583.698,227.991 583.71,227.995 "
   id="polygon100581"
   style="clip-rule:evenodd;fill:#010101;fill-rule:evenodd" />
		<polygon
   clip-path="url(#SVGID_2_)"
   points="585.021,233.709 585.028,233.725 585.01,233.715 "
   id="polygon100583"
   style="fill:#4d494a" />
		<path
   clip-path="url(#SVGID_2_)"
   d="m 587.862,234.571 -0.02,0.256 z"
   id="path100585"
   inkscape:connector-curvature="0"
   style="fill:#4d494a" />
		<path
   clip-path="url(#SVGID_2_)"
   d="m 583.52,232.933 0.023,0.121 0.047,0.128 0.056,0.095 0.32,0.169 0.32,0.169 0.309,0.167 0.312,0.154 0.013,0.004 0.316,0.143 0.315,0.146 0.344,0.138 0.348,0.129 0.011,0.004 0.369,0.097 0.369,0.1 0.012,0.003 0.407,0.062 0.418,0.064 0.012,0.004 0.455,0.023 0.017,-0.005 0.486,0.012 0.52,-0.017 0.551,-0.029 0.114,-0.075 0.711,-1.873 -0.12,-0.166 0.008,0.242 -0.038,-0.048 0.027,-0.069 -0.079,0.005 -0.034,-0.043 -0.018,0.046 -0.409,0.024 h -0.527 l -0.486,-0.011 -0.444,-0.021 -0.435,-0.059 -0.403,-0.069 -0.37,-0.099 -0.368,-0.099 -0.347,-0.128 -0.336,-0.126 -0.316,-0.144 -0.312,-0.153 -0.325,-0.158 -0.31,-0.167 -0.308,-0.165 -0.214,-0.112 0.006,-0.021 -0.113,-0.037 -0.03,-0.135 -0.022,-0.123 -0.01,-0.041 0.086,-0.184 -0.12,-0.039 -0.005,-0.002 -0.112,-0.037 -0.714,1.871 -0.007,0.062 0.019,0.132 z m 0.088,-0.298 0.004,0.023 -0.013,-0.005 z"
   id="path100587"
   inkscape:connector-curvature="0"
   style="fill:#010101" />
		<polygon
   clip-path="url(#SVGID_2_)"
   points="590.032,232.969 590.582,232.939 590.574,232.696 590.023,232.729 "
   id="polygon100589"
   style="clip-rule:evenodd;fill:#010101;fill-rule:evenodd" />
		
			<rect
   x="589.50702"
   y="232.73599"
   transform="matrix(-0.9996,0.0281,-0.0281,-0.9996,1185.8523,449.0287)"
   clip-path="url(#SVGID_2_)"
   width="0.52100003"
   height="0.23999999"
   id="rect100591"
   style="clip-rule:evenodd;fill:#010101;fill-rule:evenodd" />
		<polygon
   clip-path="url(#SVGID_2_)"
   points="589.026,232.97 589.512,232.983 589.505,232.743 589.019,232.731 589.033,232.724 589.01,232.979 589.015,232.969 "
   id="polygon100593"
   style="clip-rule:evenodd;fill:#010101;fill-rule:evenodd" />
		<polygon
   clip-path="url(#SVGID_2_)"
   points="589.01,232.979 589.033,232.724 588.576,232.696 588.588,232.701 588.546,232.939 588.558,232.941 "
   id="polygon100595"
   style="clip-rule:evenodd;fill:#010101;fill-rule:evenodd" />
		<polygon
   clip-path="url(#SVGID_2_)"
   points="588.123,232.885 588.546,232.939 588.588,232.701 588.169,232.637 "
   id="polygon100597"
   style="clip-rule:evenodd;fill:#010101;fill-rule:evenodd" />
		<polygon
   clip-path="url(#SVGID_2_)"
   points="588.123,232.885 588.169,232.637 587.75,232.571 587.763,232.575 587.709,232.811 587.722,232.815 "
   id="polygon100599"
   style="clip-rule:evenodd;fill:#010101;fill-rule:evenodd" />
		<polygon
   clip-path="url(#SVGID_2_)"
   points="587.395,232.478 587.336,232.724 587.34,232.711 587.709,232.811 587.763,232.575 "
   id="polygon100601"
   style="clip-rule:evenodd;fill:#010101;fill-rule:evenodd" />
		<polygon
   clip-path="url(#SVGID_2_)"
   points="587.337,232.724 587.394,232.478 587.024,232.379 587.035,232.384 586.955,232.621 586.967,232.624 "
   id="polygon100603"
   style="clip-rule:evenodd;fill:#010101;fill-rule:evenodd" />
		<polygon
   clip-path="url(#SVGID_2_)"
   points="586.955,232.621 587.035,232.384 586.688,232.257 586.699,232.258 586.598,232.488 586.608,232.491 "
   id="polygon100605"
   style="clip-rule:evenodd;fill:#010101;fill-rule:evenodd" />
		<polygon
   clip-path="url(#SVGID_2_)"
   points="586.266,232.354 586.599,232.488 586.7,232.258 586.368,232.122 "
   id="polygon100607"
   style="clip-rule:evenodd;fill:#010101;fill-rule:evenodd" />
		<polygon
   clip-path="url(#SVGID_2_)"
   points="585.949,232.209 586.266,232.354 586.367,232.122 586.047,231.989 "
   id="polygon100609"
   style="clip-rule:evenodd;fill:#010101;fill-rule:evenodd" />
		<polygon
   clip-path="url(#SVGID_2_)"
   points="585.632,232.067 585.949,232.209 586.047,231.989 585.724,231.834 585.734,231.838 585.62,232.062 585.625,232.051 "
   id="polygon100611"
   style="clip-rule:evenodd;fill:#010101;fill-rule:evenodd" />
		<polygon
   clip-path="url(#SVGID_2_)"
   points="585.421,231.683 585.309,231.907 585.312,231.897 585.621,232.062 585.733,231.838 "
   id="polygon100613"
   style="clip-rule:evenodd;fill:#010101;fill-rule:evenodd" />
		<polygon
   clip-path="url(#SVGID_2_)"
   points="585.113,231.518 584.991,231.729 585.003,231.73 585.31,231.907 585.42,231.683 "
   id="polygon100615"
   style="clip-rule:evenodd;fill:#010101;fill-rule:evenodd" />
		<polygon
   clip-path="url(#SVGID_2_)"
   points="584.682,231.562 584.991,231.729 585.113,231.518 584.804,231.349 "
   id="polygon100617"
   style="clip-rule:evenodd;fill:#010101;fill-rule:evenodd" />
		<polygon
   clip-path="url(#SVGID_2_)"
   points="584.682,231.56 584.804,231.349 584.483,231.18 584.309,231.248 584.535,231.323 584.362,231.392 "
   id="polygon100619"
   style="clip-rule:evenodd;fill:#010101;fill-rule:evenodd" />
		<polygon
   clip-path="url(#SVGID_2_)"
   points="619.26,228.726 619.198,228.604 619.101,228.483 618.999,228.375 618.894,228.276 618.776,228.174 618.655,228.084 618.54,228.019 618.426,227.944 618.293,227.888 618.177,227.823 618.064,227.785 617.962,227.752 617.841,227.736 617.732,227.726 617.627,227.741 617.521,227.757 617.408,227.792 617.31,227.86 617.213,227.929 616.496,229.814 618.836,230.594 619.379,229.343 619.395,229.223 619.398,229.097 619.379,228.964 619.335,228.838 "
   id="polygon100621"
   style="clip-rule:evenodd;fill:#010101;fill-rule:evenodd" />
		<polygon
   clip-path="url(#SVGID_2_)"
   points="616.536,229.689 616.458,229.927 618.799,230.707 618.957,230.647 618.731,230.534 618.878,230.47 "
   id="polygon100623"
   style="clip-rule:evenodd;fill:#010101;fill-rule:evenodd" />
		<polygon
   clip-path="url(#SVGID_2_)"
   points="582.613,229.325 582.616,229.238 582.629,229.204 583.342,227.331 583.567,227.405 582.876,229.257 582.862,229.332 582.858,229.307 582.616,229.353 "
   id="polygon100625"
   style="fill:#010101" />
		<polygon
   clip-path="url(#SVGID_2_)"
   points="594.049,233.694 594.095,233.672 594.053,233.697 "
   id="polygon100627"
   style="fill:#4d494a" />
		<path
   clip-path="url(#SVGID_2_)"
   d="m 582.704,229.657 0.025,0.109 0.004,-0.012 0.184,-0.038 -0.048,0.121 5.248,-0.172 0.124,0.005 0.136,0.046 0.137,0.043 0.135,0.048 0.125,0.076 0.101,0.073 0.073,0.087 0.043,0.087 -0.122,0.037 2.085,6.289 h 0.124 l 10e-4,0.078 h 0.189 l 0.177,-0.004 0.162,0.004 0.147,-0.025 0.149,-0.039 0.151,-0.073 0.14,-0.118 0.165,-0.158 0.004,-0.014 0.097,-0.129 0.107,-0.14 0.125,-0.146 0.088,-0.148 0.108,-0.178 0.114,-0.149 0.092,-0.169 0.121,-0.175 0.098,-0.144 0.141,-0.153 0.113,-0.151 0.131,-0.133 0.117,-0.123 0.125,-0.11 0.12,-0.097 0.14,-0.079 0.03,-0.015 -0.09,-0.087 0.09,0.087 0.141,-0.155 0.128,-0.121 0.112,-0.112 0.121,-0.099 0.119,-0.085 0.12,-0.073 0.111,-0.063 0.121,-0.06 0.134,-0.03 0.133,-0.057 0.137,-0.03 0.156,-0.022 0.174,-0.03 0.192,-0.013 0.209,-0.017 0.203,-0.009 0.012,0.006 22.645,-1.693 0.132,-0.018 0.121,-0.023 0.108,-0.025 0.114,-0.038 0.105,-0.053 0.109,-0.064 0.09,-0.083 0.105,-0.091 0.022,-0.028 0.396,-0.924 -0.207,-0.133 0.092,0.091 -0.016,0.01 -0.1,-0.069 -0.099,0.231 -0.067,0.039 -0.086,0.034 -0.103,0.041 -0.094,0.019 -0.12,0.023 -0.121,0.022 -22.655,1.688 -0.146,0.014 -0.14,0.006 -0.138,0.003 -0.148,0.023 h -0.151 l -0.13,0.021 -0.145,0.016 -0.131,0.019 -0.148,0.027 -0.131,0.018 -0.135,0.03 -0.151,0.039 -0.137,0.029 -0.144,0.053 -0.143,0.053 -0.136,0.068 -0.268,0.161 -0.272,0.249 -0.286,0.295 -0.275,0.334 -0.267,0.351 -0.231,0.313 -0.226,0.301 -0.188,0.227 -0.11,0.026 -0.093,0.019 -0.118,0.012 h -0.113 -0.113 l -0.097,-0.009 -0.125,-0.003 -0.11,-0.012 -2.079,-6.273 -0.044,-0.09 -0.072,-0.087 -0.102,-0.072 -0.137,-0.081 -0.132,-0.059 -0.136,-0.046 -0.128,-0.028 -0.126,-0.004 -5.242,0.16 -0.63,1.657 -0.004,-0.022 z m 37.68,0.174 0.006,-0.016 0.087,0.082 z"
   id="path100629"
   inkscape:connector-curvature="0"
   style="fill:#010101" />
		<polygon
   clip-path="url(#SVGID_2_)"
   points="620.477,229.897 620.297,229.724 620.217,229.811 620.134,229.872 620.054,229.92 619.969,229.954 619.884,229.976 619.786,230.007 619.681,230.021 619.564,230.032 619.591,230.294 619.726,230.262 619.846,230.24 619.957,230.213 620.07,230.175 620.175,230.122 620.284,230.06 620.37,229.988 "
   id="polygon100631"
   style="clip-rule:evenodd;fill:#010101;fill-rule:evenodd" />
		<polygon
   clip-path="url(#SVGID_2_)"
   points="596.948,231.974 619.591,230.294 619.564,230.032 596.92,231.724 "
   id="polygon100633"
   style="clip-rule:evenodd;fill:#010101;fill-rule:evenodd" />
		<polygon
   clip-path="url(#SVGID_2_)"
   points="595.822,232.074 595.942,232.051 596.082,232.049 596.226,232.033 596.369,232.019 596.512,232.003 596.64,231.996 596.795,231.984 596.948,231.974 596.921,231.724 596.775,231.74 596.635,231.754 596.482,231.754 596.34,231.77 596.198,231.772 596.063,231.804 595.923,231.807 595.77,231.817 595.633,231.848 595.498,231.878 595.351,231.904 595.199,231.941 595.072,231.987 594.918,232.035 594.764,232.085 594.626,232.152 594.729,232.376 594.859,232.319 594.989,232.273 595.145,232.225 595.271,232.18 595.41,232.139 595.543,232.12 595.676,232.1 "
   id="polygon100635"
   style="clip-rule:evenodd;fill:#010101;fill-rule:evenodd" />
		<polygon
   clip-path="url(#SVGID_2_)"
   points="593.54,233.562 593.673,233.393 593.809,233.212 593.948,233.057 594.085,232.914 594.224,232.759 594.34,232.635 594.487,232.534 594.607,232.436 594.729,232.376 594.626,232.152 594.472,232.239 594.34,232.333 594.186,232.458 594.039,232.597 593.903,232.74 593.768,232.884 593.617,233.072 593.483,233.241 593.353,233.411 593.221,233.58 593.104,233.743 592.975,233.9 592.861,234.052 592.753,234.191 592.663,234.312 592.579,234.409 592.625,234.386 592.7,234.612 592.749,234.58 592.851,234.462 592.94,234.341 593.049,234.203 593.163,234.052 593.293,233.894 593.408,233.731 "
   id="polygon100637"
   style="clip-rule:evenodd;fill:#010101;fill-rule:evenodd" />
		<polygon
   clip-path="url(#SVGID_2_)"
   points="588.868,227.794 584.854,226.455 584.649,226.574 588.358,227.812 588.362,227.801 588.829,227.794 "
   id="polygon100639"
   style="clip-rule:evenodd;fill:#ffffff;fill-rule:evenodd" />
		<polygon
   clip-path="url(#SVGID_2_)"
   points="583.484,227.279 583.567,227.219 583.765,227.084 583.982,226.956 584.201,226.827 584.421,226.699 584.628,226.566 584.649,226.574 588.358,227.812 588.362,227.801 583.586,227.954 583.567,227.858 583.542,227.752 583.511,227.652 583.474,227.54 583.454,227.445 583.454,227.37 "
   id="polygon100641"
   style="clip-rule:evenodd;fill:#ffffff;fill-rule:evenodd" />
		<polygon
   clip-path="url(#SVGID_2_)"
   points="588.573,232.822 588.14,232.764 587.735,232.694 587.365,232.596 586.997,232.497 586.651,232.369 586.314,232.243 585.999,232.1 585.686,231.946 585.36,231.788 585.052,231.621 584.744,231.456 584.422,231.286 584.392,231.151 584.369,231.028 584.34,230.894 584.32,230.761 585.459,230.701 588.713,230.52 589.985,231.032 590.435,232.362 590.571,232.822 590.032,232.854 589.505,232.854 589.018,232.844 "
   id="polygon100643"
   style="fill:#ffffff" />
		<polygon
   clip-path="url(#SVGID_2_)"
   points="593.701,231.127 593.654,231.074 593.701,231.127 594.119,231.38 594.253,231.163 593.835,230.909 593.877,230.973 593.654,231.074 593.671,231.104 "
   id="polygon100645"
   style="clip-rule:evenodd;fill:#ffffff;fill-rule:evenodd" />
		<polygon
   clip-path="url(#SVGID_2_)"
   points="590.035,230.921 589.934,231.153 589.862,231.066 590.458,232.859 590.694,232.786 590.099,230.993 590.035,230.921 590.099,230.993 590.081,230.937 "
   id="polygon100647"
   style="clip-rule:evenodd;fill:#ffffff;fill-rule:evenodd" />
		<polygon
   clip-path="url(#SVGID_2_)"
   points="588.716,230.395 588.725,230.637 588.663,230.628 589.934,231.153 590.035,230.921 588.767,230.398 588.716,230.395 588.767,230.398 588.743,230.392 "
   id="polygon100649"
   style="clip-rule:evenodd;fill:#ffffff;fill-rule:evenodd" />
		<polygon
   clip-path="url(#SVGID_2_)"
   points="584.204,230.771 584.448,230.756 584.329,230.891 588.725,230.637 588.716,230.395 584.321,230.648 584.204,230.771 584.321,230.648 584.181,230.652 "
   id="polygon100651"
   style="clip-rule:evenodd;fill:#ffffff;fill-rule:evenodd" />
		<polygon
   clip-path="url(#SVGID_2_)"
   points="584.453,230.819 584.448,230.756 584.204,230.771 584.204,230.848 584.215,230.928 584.234,230.982 584.238,231.047 584.256,231.104 584.271,231.173 584.298,231.245 584.302,231.31 584.361,231.392 584.302,231.31 584.32,231.364 584.361,231.392 584.483,231.18 584.531,231.259 584.528,231.195 584.514,231.127 584.509,231.064 584.49,231.007 584.486,230.943 584.472,230.875 "
   id="polygon100653"
   style="clip-rule:evenodd;fill:#ffffff;fill-rule:evenodd" />
		<polygon
   clip-path="url(#SVGID_2_)"
   points="587.393,232.478 587.035,232.384 586.688,232.255 586.369,232.122 586.047,231.989 585.734,231.838 585.422,231.683 585.113,231.518 584.804,231.349 584.483,231.18 584.362,231.392 584.682,231.562 584.991,231.729 585.31,231.907 585.62,232.062 585.949,232.209 586.266,232.354 586.608,232.491 586.955,232.621 587.336,232.724 587.71,232.811 588.123,232.885 588.558,232.941 589.01,232.979 589.512,232.983 590.032,232.969 590.593,232.943 590.695,232.786 590.593,232.943 590.748,232.931 590.695,232.786 590.458,232.859 590.46,232.848 590.562,232.694 590.023,232.729 589.503,232.743 589.033,232.724 588.576,232.696 588.169,232.637 587.763,232.575 "
   id="polygon100655"
   style="clip-rule:evenodd;fill:#ffffff;fill-rule:evenodd" />
		<polygon
   clip-path="url(#SVGID_2_)"
   points="595.501,231.904 595.324,231.946 595.17,231.994 594.999,232.051 594.842,232.111 594.705,232.18 594.545,232.25 594.412,232.345 594.291,232.442 594.442,232.633 594.559,232.544 594.672,232.468 594.797,232.397 594.939,232.345 595.079,232.267 595.229,232.228 595.408,232.187 595.562,232.139 595.731,232.12 595.883,232.081 596.063,232.067 596.236,232.037 596.422,232.01 596.602,231.994 596.771,231.978 596.948,231.974 596.92,231.724 596.754,231.731 596.568,231.758 596.402,231.765 596.223,231.779 596.049,231.811 595.863,231.838 595.679,231.863 "
   id="polygon100657"
   style="clip-rule:evenodd;fill:#ffffff;fill-rule:evenodd" />
		<polygon
   clip-path="url(#SVGID_2_)"
   points="619.564,230.032 596.92,231.724 596.948,231.974 619.591,230.294 "
   id="polygon100659"
   style="clip-rule:evenodd;fill:#ffffff;fill-rule:evenodd" />
		<polygon
   clip-path="url(#SVGID_2_)"
   points="620.341,229.588 620.314,229.668 620.276,229.742 620.228,229.814 620.141,229.886 620.051,229.932 619.906,229.984 619.756,230.021 619.564,230.032 619.591,230.294 619.798,230.274 619.979,230.222 620.137,230.16 620.276,230.083 620.404,229.998 620.495,229.877 620.544,229.769 620.589,229.634 620.587,229.494 620.594,229.359 620.563,229.223 620.514,229.069 620.457,228.936 620.382,228.785 620.284,228.627 620.187,228.506 619.986,228.652 620.081,228.785 620.18,228.906 620.224,229.034 620.296,229.158 620.333,229.272 620.345,229.389 620.348,229.489 "
   id="polygon100661"
   style="clip-rule:evenodd;fill:#ffffff;fill-rule:evenodd" />
		<polygon
   clip-path="url(#SVGID_2_)"
   points="618.856,227.75 619.037,227.847 619.202,227.952 619.379,228.062 619.508,228.167 619.644,228.288 619.776,228.419 619.885,228.544 619.987,228.652 620.187,228.506 620.069,228.366 619.938,228.235 619.805,228.103 619.658,227.978 619.497,227.862 619.335,227.746 619.169,227.639 618.98,227.525 618.785,227.437 618.584,227.356 618.38,227.288 618.167,227.217 617.955,227.171 617.739,227.137 617.494,227.118 617.281,227.12 617.287,227.363 617.49,227.356 617.698,227.375 617.909,227.421 618.112,227.452 618.306,227.515 618.499,227.579 618.683,227.666 "
   id="polygon100663"
   style="clip-rule:evenodd;fill:#ffffff;fill-rule:evenodd" />
		<polygon
   clip-path="url(#SVGID_2_)"
   points="597.252,228.053 617.288,227.363 617.281,227.12 597.255,227.816 "
   id="polygon100665"
   style="clip-rule:evenodd;fill:#ffffff;fill-rule:evenodd" />
		<polygon
   clip-path="url(#SVGID_2_)"
   points="595.684,227.932 595.883,227.975 596.09,227.991 596.294,228.022 596.494,228.025 596.686,228.053 596.89,228.045 597.074,228.058 597.252,228.053 597.255,227.816 597.066,227.816 596.882,227.805 596.708,227.798 596.512,227.782 596.315,227.767 596.121,227.752 595.928,227.725 595.726,227.695 595.525,227.652 595.333,227.627 595.138,227.574 594.935,227.544 594.738,227.489 594.529,227.435 594.355,227.389 594.165,227.325 594.086,227.562 594.089,227.551 594.277,227.627 594.477,227.668 594.67,227.731 594.87,227.773 595.079,227.819 595.275,227.872 595.49,227.905 "
   id="polygon100667"
   style="clip-rule:evenodd;fill:#ffffff;fill-rule:evenodd" />
		<polygon
   clip-path="url(#SVGID_2_)"
   points="589.554,225.622 589.77,225.656 589.97,225.699 590.157,225.736 590.327,225.793 590.508,225.853 590.651,225.914 590.828,225.985 590.968,226.057 591.13,226.137 591.292,226.215 591.451,226.308 591.608,226.397 591.768,226.486 591.934,226.594 592.096,226.672 592.271,226.78 592.469,226.873 592.655,226.985 592.868,227.068 593.071,227.174 593.301,227.274 593.55,227.359 593.815,227.471 594.086,227.562 594.165,227.325 593.893,227.233 593.627,227.133 593.401,227.045 593.168,226.954 592.954,226.846 592.77,226.759 592.581,226.645 592.396,226.56 592.216,226.46 592.046,226.367 591.888,226.276 591.723,226.169 591.563,226.079 591.401,226.001 591.238,225.922 591.092,225.834 590.931,225.755 590.753,225.684 590.586,225.615 590.405,225.556 590.215,225.491 590.014,225.45 589.812,225.42 589.587,225.37 589.358,225.343 589.121,225.342 588.844,225.336 588.581,225.336 588.275,225.347 587.967,225.37 587.64,225.411 587.3,225.448 587.317,225.692 587.33,225.699 587.674,225.649 587.997,225.619 588.307,225.595 588.588,225.576 588.856,225.566 589.098,225.597 589.347,225.604 "
   id="polygon100669"
   style="clip-rule:evenodd;fill:#ffffff;fill-rule:evenodd" />
		<polygon
   clip-path="url(#SVGID_2_)"
   points="585.357,226.334 585.597,226.226 585.833,226.114 586.066,226.018 586.308,225.935 586.569,225.871 586.807,225.8 587.065,225.736 587.319,225.692 587.3,225.448 587.018,225.505 586.75,225.555 586.485,225.628 586.236,225.697 585.988,225.802 585.731,225.894 585.499,225.992 585.261,226.101 585.02,226.221 584.789,226.345 584.574,226.46 584.355,226.59 584.136,226.718 583.918,226.846 583.711,226.979 583.504,227.109 583.62,227.325 583.632,227.329 583.828,227.192 584.046,227.063 584.266,226.938 584.487,226.798 584.691,226.677 584.921,226.553 585.136,226.435 "
   id="polygon100671"
   style="clip-rule:evenodd;fill:#ffffff;fill-rule:evenodd" />
		<polygon
   clip-path="url(#SVGID_2_)"
   points="583.59,227.339 583.62,227.325 583.503,227.109 583.395,227.21 583.337,227.343 583.322,227.464 583.36,227.576 583.387,227.687 583.417,227.784 583.447,227.881 583.465,227.977 583.583,228.077 583.465,227.977 583.47,228.077 583.583,228.077 583.586,227.842 583.714,227.945 583.677,227.833 583.654,227.712 583.624,227.615 583.598,227.506 583.583,227.437 583.57,227.396 "
   id="polygon100673"
   style="clip-rule:evenodd;fill:#ffffff;fill-rule:evenodd" />
		<polygon
   clip-path="url(#SVGID_2_)"
   points="592.836,228.741 592.841,228.73 592.838,228.743 "
   id="polygon100675"
   style="fill:#ffffff" />
		<polygon
   clip-path="url(#SVGID_2_)"
   points="592.808,228.869 592.784,228.787 592.836,228.741 "
   id="polygon100677"
   style="fill:#ffffff" />
		<polygon
   clip-path="url(#SVGID_2_)"
   points="599.838,231.642 596.249,230.446 596.157,230.227 600.288,231.604 599.842,231.632 "
   id="polygon100679"
   style="fill:#ffffff" />
		<path
   clip-path="url(#SVGID_2_)"
   d="m 583.583,228.077 5.247,-0.171 0.109,0.011 0.102,0.035 0.137,0.045 0.123,0.042 0.113,0.075 0.082,0.053 0.05,0.08 0.038,0.037 2.087,6.287 0.031,0.097 0.101,-0.003 0.106,-0.014 0.12,0.014 0.147,0.012 0.139,-0.003 0.136,0.008 0.124,-0.034 0.14,-0.04 0.113,-0.077 0.136,-0.145 0.113,-0.15 0.105,-0.127 0.105,-0.127 0.092,-0.122 0.086,-0.109 0.074,-0.112 0.092,-0.121 0.074,-0.112 0.087,-0.108 0.087,-0.111 0.094,-0.094 0.1,-0.105 0.112,-0.112 0.113,-0.114 0.144,-0.126 -0.077,-0.097 0.113,-0.094 0.131,-0.082 0.146,-0.064 0.136,-0.068 0.146,-0.062 0.166,-0.047 0.17,-0.056 0.165,-0.044 0.158,-0.024 0.174,-0.03 0.185,-0.025 0.174,-0.029 0.18,-0.016 0.182,-0.016 0.17,-0.019 0.166,-0.007 2.91,-0.211 -3.586,-1.195 -0.094,-0.22 4.131,1.378 19.294,-1.439 0.359,-0.057 0.269,-0.124 0.185,-0.177 0.066,-0.205 v -0.225 l 0.004,-0.012 -0.063,-0.261 -0.128,-0.257 -0.186,-0.274 -0.109,-0.124 -0.12,-0.128 -0.132,-0.131 -0.139,-0.111 -0.147,-0.124 -0.165,-0.105 -0.177,-0.109 -0.178,-0.11 -0.189,-0.075 -0.186,-0.087 -0.202,-0.068 -0.217,-0.069 -0.201,-0.031 -0.212,-0.046 -0.22,-0.021 -0.213,0.003 -2.915,0.107 -17.111,0.586 h -0.188 l -0.177,0.003 -0.201,-0.003 -0.19,-0.025 -0.196,-0.016 -0.195,-0.016 -0.192,-0.027 -0.204,-0.03 -0.204,-0.029 -0.2,-0.042 -0.199,-0.043 -0.199,-0.041 -0.207,-0.054 -0.195,-0.055 -0.187,-0.05 -0.192,-0.062 -0.271,-0.093 -0.267,-0.102 -0.234,-0.089 -0.232,-0.092 -0.205,-0.104 -0.195,-0.091 -0.203,-0.107 -0.186,-0.087 -0.177,-0.108 -0.159,-0.091 -0.17,-0.094 -0.156,-0.09 -0.171,-0.094 -0.156,-0.092 -0.152,-0.075 -0.159,-0.092 -0.16,-0.078 -0.168,-0.068 -0.158,-0.053 -0.18,-0.06 -0.192,-0.065 -0.185,-0.049 -0.204,-0.029 -0.215,-0.034 -0.22,-0.023 -0.244,-0.019 -0.262,-0.013 -0.266,0.013 -0.279,0.007 -0.312,0.034 -0.324,0.03 -0.354,0.044 -0.264,0.038 -0.261,0.064 -0.261,0.062 -0.241,0.084 -0.256,0.092 -0.244,0.092 -0.233,0.1 -0.238,0.108 -0.227,0.112 -0.229,0.126 3.661,1.222 -4.929,0.165 z m 33.559,0.106 0.021,-0.145 0.05,-0.109 0.089,-0.082 0.136,-0.068 0.159,-0.021 0.086,0.003 0.1,0.007 0.093,0.019 0.095,0.02 0.113,0.039 0.103,0.034 0.108,0.047 0.118,0.065 0.097,0.044 0.103,0.073 0.09,0.066 0.099,0.084 0.102,0.071 0.07,0.087 0.088,0.078 0.072,0.087 0.131,0.17 0.067,0.174 0.034,0.087 0.02,0.057 -0.012,0.147 -0.027,0.116 -0.083,0.097 -0.119,0.062 -0.163,0.032 -0.091,0.009 -0.093,-0.021 -0.109,-0.01 -0.118,-0.025 -0.102,-0.034 -0.112,-0.039 -0.12,-0.052 -0.107,-0.061 -0.108,-0.05 -0.118,-0.063 -0.102,-0.071 -0.097,-0.083 -0.091,-0.068 -0.094,-0.094 -0.083,-0.09 -0.072,-0.089 -0.115,-0.178 -0.068,-0.172 -0.02,-0.056 z m -20.859,2.664 v 0 l -0.081,-0.065 z m -3.211,-1.993 0.132,-0.133 1.722,-0.099 0.365,0.188 0.863,2.032 -0.134,0.172 -1.849,0.132 0.081,0.017 -0.062,0.099 -0.01,0.002 -0.41,-0.237 -0.002,-0.005 0.107,-0.049 z"
   id="path100681"
   inkscape:connector-curvature="0"
   style="fill:#ffffff" />
		<polygon
   clip-path="url(#SVGID_2_)"
   points="615.851,229.334 616.002,229.296 616.032,229.396 615.941,229.325 615.975,229.489 615.87,229.429 "
   id="polygon100683"
   style="clip-rule:evenodd;fill:#010101;fill-rule:evenodd" />
		<polygon
   clip-path="url(#SVGID_2_)"
   points="615.998,229.309 616.039,229.296 616.044,229.286 616.036,229.309 616.176,229.38 616.18,229.368 616.157,229.398 616.119,229.437 616.072,229.458 616.029,229.48 615.975,229.489 615.942,229.327 615.964,229.334 "
   id="polygon100685"
   style="clip-rule:evenodd;fill:#010101;fill-rule:evenodd" />
		<polygon
   clip-path="url(#SVGID_2_)"
   points="616.221,229.243 616.176,229.38 616.036,229.309 616.064,229.216 616.06,229.128 616.032,229.017 615.964,228.92 615.89,228.808 615.808,228.716 615.711,228.622 615.64,228.535 615.651,228.538 615.753,228.423 615.765,228.426 615.837,228.513 615.931,228.606 616.021,228.712 616.107,228.83 616.179,228.954 616.22,229.094 "
   id="polygon100687"
   style="clip-rule:evenodd;fill:#010101;fill-rule:evenodd" />
		<polygon
   clip-path="url(#SVGID_2_)"
   points="615.595,228.293 615.753,228.423 615.651,228.538 615.497,228.437 615.35,228.35 615.211,228.279 615.06,228.24 614.893,228.211 614.725,228.191 614.551,228.185 614.373,228.188 614.379,228.178 614.35,228.029 614.366,228.022 614.354,228.018 614.555,228.022 614.743,228.022 614.92,228.055 615.09,228.075 615.263,228.119 615.425,228.199 "
   id="polygon100689"
   style="clip-rule:evenodd;fill:#010101;fill-rule:evenodd" />
		<polygon
   clip-path="url(#SVGID_2_)"
   points="614.352,228.029 614.378,228.178 599.743,228.91 599.808,228.869 599.657,228.794 599.721,228.751 "
   id="polygon100691"
   style="clip-rule:evenodd;fill:#010101;fill-rule:evenodd" />
		<polygon
   clip-path="url(#SVGID_2_)"
   points="599.592,228.76 599.721,228.751 599.743,228.91 599.622,228.932 599.513,228.959 599.46,228.966 599.407,229.012 599.382,229.053 599.34,229.103 599.317,229.17 599.322,229.271 599.163,229.218 599.31,229.305 599.15,229.252 599.163,229.144 599.192,229.053 599.237,228.956 599.298,228.888 599.377,228.838 599.479,228.797 "
   id="polygon100693"
   style="clip-rule:evenodd;fill:#010101;fill-rule:evenodd" />
		<polygon
   clip-path="url(#SVGID_2_)"
   points="615.376,228.687 615.222,228.584 615.066,228.52 614.905,228.479 614.736,228.458 614.558,228.426 614.385,228.417 614.196,228.417 599.562,229.151 599.683,228.923 599.729,228.917 599.743,228.91 614.377,228.178 614.622,228.196 614.826,228.188 615.019,228.215 615.194,228.249 615.358,228.327 615.503,228.414 615.641,228.535 615.794,228.712 615.931,228.87 616.029,229.029 616.077,229.145 616.077,229.222 616.044,229.286 615.95,229.343 615.938,229.346 615.931,229.322 615.882,229.243 615.841,229.179 615.787,229.11 615.745,229.048 615.688,228.989 615.636,228.923 615.579,228.867 615.527,228.799 "
   id="polygon100695"
   style="fill:#010101" />
		<path
   clip-path="url(#SVGID_2_)"
   d="m 599.151,229.252 0.014,0.144 0.031,0.099 0.041,0.138 0.099,0.16 0.119,0.128 0.155,0.14 0.186,0.124 0.207,0.094 0.217,0.06 0.266,0.002 15.033,-0.764 0.287,-0.03 0.203,-0.044 0.148,-0.103 0.081,-0.136 -0.003,-0.14 -0.057,-0.169 -0.108,-0.162 -0.151,-0.19 -0.154,-0.176 -0.167,-0.145 -0.176,-0.107 -0.173,-0.083 -0.189,-0.038 -0.227,-0.037 h -0.227 l -0.257,0.014 -14.629,0.722 v 0.004 l -0.155,0.009 -0.158,0.06 -0.104,0.09 -0.073,0.103 -0.049,0.108 z m 0.17,0.019 0.018,-0.094 0.007,-0.015 0.012,-0.004 h 0.076 l 0.129,-0.007 0.121,-0.229 0.045,-0.006 0.015,-0.007 14.636,-0.732 0.243,0.019 0.204,-0.009 0.192,0.027 0.176,0.034 0.164,0.078 0.146,0.087 0.135,0.121 0.156,0.177 0.135,0.158 0.099,0.159 0.048,0.115 v 0.077 l -0.033,0.064 -0.095,0.057 -0.012,0.003 -0.166,0.037 -0.248,0.029 -15.038,0.775 -0.012,-0.004 -0.211,-0.007 -0.206,-0.058 -0.187,-0.087 -0.157,-0.091 -0.132,-0.131 -0.094,-0.133 -0.083,-0.128 -0.065,-0.108 -0.011,-0.08 z"
   id="path100697"
   inkscape:connector-curvature="0"
   style="fill:#010101" />
	</g>
</g></g><g
   inkscape:groupmode="layer"
   id="layer21"
   inkscape:label="Cut lines"
   style="display:inline"
   sodipodi:insensitive="true"><path
     style="fill:none;stroke:#00aeef;stroke-width:0.56160003;stroke-miterlimit:10"
     inkscape:connector-curvature="0"
     id="path100232"
     d="M 369,144.252"
     stroke-miterlimit="10" /><path
     style="fill:none;stroke:#00aeef;stroke-width:0.56160003;stroke-miterlimit:10"
     inkscape:connector-curvature="0"
     id="path100234"
     d="M 369,144.252"
     stroke-miterlimit="10" /><path
     style="fill:none;stroke:#be1e2d;stroke-miterlimit:10"
     inkscape:connector-curvature="0"
     id="path100236"
     d="m 368.81,270.244 -360.044,-18 0.175,-0.002 v -198 -0.115 c 9.852,0 161.182,-35.867 360.012,-35.867 198.829,0 348.716,35.867 360.014,35.867 l 0.014,0.115 0.079,198 h -0.193 l -360.132,18.002 z"
     stroke-miterlimit="10" /><path
     style="fill:none;stroke:#00aeef;stroke-miterlimit:10;stroke-dasharray:1.44, 1.44"
     inkscape:connector-curvature="0"
     id="path100238"
     d="m 368.814,261.013 -351.021,-16.718 0.17,-0.002 V 60.405 60.298 c 9.604,0 157.143,-33.311 350.99,-33.311 193.846,0 339.977,33.311 350.991,33.311 l 0.014,0.107 0.078,183.888 h -0.189 l -351.106,16.72 z"
     stroke-miterlimit="10" /><line
     style="fill:none;stroke:#00a651;stroke-width:0.53759998;stroke-miterlimit:10"
     id="line100240"
     y2="-5.2480001"
     x2="369"
     y1="293.75201"
     x1="369"
     stroke-miterlimit="10" /></g></svg>